<?xml version="1.0" encoding="utf-8"?>
<!-- Generator: Adobe Illustrator 16.0.0, SVG Export Plug-In . SVG Version: 6.00 Build 0)  -->
<!DOCTYPE svg PUBLIC "-//W3C//DTD SVG 1.1//EN" "http://www.w3.org/Graphics/SVG/1.1/DTD/svg11.dtd">
<svg version="1.1" id="Ebene_1" xmlns="http://www.w3.org/2000/svg" xmlns:xlink="http://www.w3.org/1999/xlink" x="0px" y="0px"
	 width="180px" height="80px" viewBox="84.5 9.867 180 80" enable-background="new 84.5 9.867 180 80" xml:space="preserve">
<g id="g2446">
	<path id="path2452" fill="#D6D2E7" d="M242.363,27.203c8.805,0,15.945,7.139,15.945,15.946c0,8.802-7.141,15.943-15.945,15.943
		s-15.945-7.141-15.945-15.943C226.417,34.342,233.558,27.203,242.363,27.203 M248.763,49.602V33.641l-16.047,5.762v3.966
		l5.314-1.922v11.996L248.763,49.602z M242.363,29.543c-7.514,0-13.605,6.09-13.605,13.606c0,7.511,6.092,13.603,13.605,13.603
		s13.604-6.092,13.604-13.603C255.966,35.633,249.876,29.543,242.363,29.543 M115.467,58.381h-8.755l4.202-14.376L115.467,58.381z
		 M173.549,73.408l-0.474-4.439c-5.502,1.066-3.847-13.547-10.233-14.314c4.612-1.48,7.927-4.97,7.927-10.294
		c0-7.337-5.503-10.707-14.733-10.707c-5.679,0-13.014,0.295-14.493,0.295h-4.496v3.727c1.478,0.887,3.252,2.071,4.909,2.544v27.389
		c-1.833,0.477-3.432,1.539-4.909,2.486v3.785h18.279v-3.785c-1.006-0.887-2.07-1.834-3.431-2.486v-9.879h1.775
		c6.152,0,4.022,16.803,13.075,16.803C168.934,74.531,171.536,74.235,173.549,73.408 M160.474,45.72
		c0,3.904-1.952,6.329-5.917,6.329h-2.661V39.627c0.531-0.118,1.478-0.236,2.367-0.236C158.758,39.391,160.474,42.349,160.474,45.72
		 M219.675,53.059c0-13.963-7.098-19.348-19.936-19.348c-5.387,0-12.068,0.237-15.266,0.237h-4.791v3.727
		c1.479,0.888,3.254,2.07,4.912,2.603v27.27c-1.836,0.475-3.434,1.6-4.912,2.547v3.785h4.969c1.775,0,8.045,0.236,12.367,0.236
		C209.912,74.117,219.675,66.721,219.675,53.059 M209.203,53.944c0,9.645-4.201,13.904-9.582,13.904
		c-2.365,0-3.846-0.178-5.088-0.592V39.568c1.064-0.119,2.246-0.177,3.549-0.177C206.955,39.391,209.203,46.135,209.203,53.944
		 M132.033,73.879v-3.785c-0.71-0.887-1.715-1.715-2.841-2.426L117.538,33.83h-9.76L96.123,67.668
		c-1.302,0.592-2.485,1.479-3.433,2.426v3.785h14.731v-3.785c-1.005-0.947-2.13-1.773-3.431-2.424l1.123-3.727h12.009l1.243,3.727
		c-1.302,0.59-2.544,1.477-3.61,2.424v3.785H132.033L132.033,73.879z"/>
</g>
</svg>
