<?xml version="1.0" encoding="utf-8"?>
<!-- Generator: Adobe Illustrator 16.0.0, SVG Export Plug-In . SVG Version: 6.00 Build 0)  -->
<!DOCTYPE svg PUBLIC "-//W3C//DTD SVG 1.1//EN" "http://www.w3.org/Graphics/SVG/1.1/DTD/svg11.dtd">
<svg version="1.1" id="Ebene_1" xmlns="http://www.w3.org/2000/svg" xmlns:xlink="http://www.w3.org/1999/xlink" x="0px" y="0px"
	 width="309px" height="68px" viewBox="-200 -107.633 309 68" enable-background="new -200 -107.633 309 68" xml:space="preserve">
<g id="layer1" transform="translate(0,0.21679688)" inkscape:label="Ebene 1" inkscape:groupmode="layer">
	<g id="iris">
		
			<path id="path3036-0-5-9-0" sodipodi:type="arc" sodipodi:ry="6.0609155" sodipodi:cx="111.8744" sodipodi:cy="149.53835" sodipodi:rx="6.0609155" fill="#D6D2E7" d="
			M-140.142-92.286c0,1.329-1.078,2.406-2.407,2.406s-2.406-1.077-2.406-2.406c-0.001-1.329,1.075-2.408,2.404-2.409
			s2.407,1.075,2.409,2.404C-140.142-92.289-140.142-92.288-140.142-92.286z"/>
		
			<path id="path3036-0-5-9-6" sodipodi:type="arc" sodipodi:ry="6.0609155" sodipodi:cx="111.8744" sodipodi:cy="149.53835" sodipodi:rx="6.0609155" fill="#D6D2E7" d="
			M-140.142-55.988c0,1.329-1.078,2.406-2.407,2.406s-2.406-1.078-2.406-2.406c-0.001-1.33,1.075-2.408,2.404-2.409
			c1.329-0.002,2.407,1.075,2.409,2.404C-140.142-55.991-140.142-55.99-140.142-55.988z"/>
		
			<path id="path3036-0-5-9-7" sodipodi:type="arc" sodipodi:ry="6.0609155" sodipodi:cx="111.8744" sodipodi:cy="149.53835" sodipodi:rx="6.0609155" fill="#D6D2E7" d="
			M-158.065-74.012c0,1.33-1.077,2.407-2.406,2.407s-2.407-1.077-2.407-2.407c-0.001-1.329,1.075-2.407,2.404-2.408
			s2.408,1.075,2.409,2.404C-158.065-74.015-158.065-74.013-158.065-74.012z"/>
		
			<path id="path3036-09-5-9" sodipodi:type="arc" sodipodi:ry="6.0609155" sodipodi:cx="111.8744" sodipodi:cy="149.53835" sodipodi:rx="6.0609155" fill="#D6D2E7" d="
			M-122.027-74.012c0,1.33-1.077,2.407-2.407,2.407c-1.329,0-2.406-1.077-2.406-2.407c-0.001-1.329,1.075-2.407,2.404-2.408
			s2.408,1.075,2.409,2.404C-122.027-74.015-122.027-74.013-122.027-74.012L-122.027-74.012z"/>
		
			<path id="path3036-0-1-5-1" sodipodi:type="arc" sodipodi:ry="6.0609155" sodipodi:cx="111.8744" sodipodi:cy="149.53835" sodipodi:rx="6.0609155" fill="#D6D2E7" d="
			M-152.23-86.12c0,1.329-1.077,2.406-2.407,2.406c-1.329,0-2.406-1.077-2.406-2.406c-0.001-1.329,1.075-2.407,2.404-2.409
			c1.329-0.001,2.408,1.076,2.409,2.405C-152.23-86.123-152.23-86.121-152.23-86.12z"/>
		
			<path id="path3036-0-1-5-2" sodipodi:type="arc" sodipodi:ry="6.0609155" sodipodi:cx="111.8744" sodipodi:cy="149.53835" sodipodi:rx="6.0609155" fill="#D6D2E7" d="
			M-128.012-86.12c0,1.329-1.078,2.406-2.406,2.406c-1.33,0-2.407-1.077-2.407-2.406c-0.001-1.329,1.075-2.407,2.404-2.409
			c1.329-0.001,2.407,1.076,2.409,2.405C-128.012-86.123-128.012-86.121-128.012-86.12L-128.012-86.12z"/>
		
			<path id="path3036-0-1-5-9" sodipodi:type="arc" sodipodi:ry="6.0609155" sodipodi:cx="111.8744" sodipodi:cy="149.53835" sodipodi:rx="6.0609155" fill="#D6D2E7" d="
			M-128.012-62.105c0,1.329-1.078,2.406-2.406,2.406c-1.33,0-2.407-1.078-2.407-2.406c-0.001-1.33,1.075-2.408,2.404-2.409
			c1.329-0.001,2.407,1.075,2.409,2.404C-128.012-62.108-128.012-62.107-128.012-62.105L-128.012-62.105z"/>
		
			<path id="path3023" sodipodi:type="arc" sodipodi:ry="4.9244938" sodipodi:cx="126.64787" sodipodi:cy="211.03139" sodipodi:rx="4.9244938" fill="#D6D2E7" d="
			M-146.543-92.286c0,1.08-0.875,1.955-1.955,1.955c-1.08,0-1.956-0.875-1.956-1.955l0,0c0-1.08,0.875-1.955,1.956-1.955
			C-147.418-94.241-146.543-93.366-146.543-92.286z"/>
		
			<path id="path3023-1" sodipodi:type="arc" sodipodi:ry="4.9244938" sodipodi:cx="126.64787" sodipodi:cy="211.03139" sodipodi:rx="4.9244938" fill="#D6D2E7" d="
			M-134.772-92.286c0,1.08-0.875,1.955-1.955,1.955s-1.955-0.875-1.955-1.955l0,0c0-1.08,0.875-1.955,1.955-1.955
			S-134.772-93.366-134.772-92.286z"/>
		
			<path id="path3023-81" sodipodi:type="arc" sodipodi:ry="4.9244938" sodipodi:cx="126.64787" sodipodi:cy="211.03139" sodipodi:rx="4.9244938" fill="#D6D2E7" d="
			M-158.517-80.241c0,1.08-0.875,1.956-1.955,1.956c-1.08,0-1.956-0.876-1.956-1.956l0,0c0-1.08,0.875-1.955,1.956-1.955
			C-159.392-82.197-158.517-81.322-158.517-80.241z"/>
		
			<path id="path3023-04" sodipodi:type="arc" sodipodi:ry="4.9244938" sodipodi:cx="126.64787" sodipodi:cy="211.03139" sodipodi:rx="4.9244938" fill="#D6D2E7" d="
			M-122.478-80.241c0,1.08-0.875,1.956-1.956,1.956c-1.08,0-1.955-0.876-1.955-1.956l0,0c0-1.08,0.875-1.955,1.955-1.955
			C-123.354-82.197-122.478-81.322-122.478-80.241z"/>
		
			<path id="path3023-6" sodipodi:type="arc" sodipodi:ry="4.9244938" sodipodi:cx="126.64787" sodipodi:cy="211.03139" sodipodi:rx="4.9244938" fill="#D6D2E7" d="
			M-122.478-68.197c0,1.08-0.875,1.956-1.956,1.956c-1.08,0-1.955-0.875-1.955-1.956l0,0c0-1.08,0.875-1.955,1.955-1.955
			C-123.354-70.152-122.478-69.276-122.478-68.197z"/>
		
			<path id="path3023-96" sodipodi:type="arc" sodipodi:ry="4.9244938" sodipodi:cx="126.64787" sodipodi:cy="211.03139" sodipodi:rx="4.9244938" fill="#D6D2E7" d="
			M-146.543-55.988c0,1.079-0.875,1.955-1.955,1.955c-1.08,0-1.956-0.875-1.956-1.955l0,0c0-1.081,0.875-1.956,1.956-1.956
			C-147.418-57.944-146.543-57.069-146.543-55.988z"/>
		
			<path id="path3023-2" sodipodi:type="arc" sodipodi:ry="4.9244938" sodipodi:cx="126.64787" sodipodi:cy="211.03139" sodipodi:rx="4.9244938" fill="#D6D2E7" d="
			M-134.772-55.988c0,1.079-0.875,1.955-1.955,1.955s-1.955-0.875-1.955-1.955l0,0c0-1.081,0.875-1.956,1.955-1.956
			S-134.772-57.069-134.772-55.988z"/>
		
			<path id="path3143-3" sodipodi:type="arc" sodipodi:ry="4.2931485" sodipodi:cx="97.732262" sodipodi:cy="240.45209" sodipodi:rx="4.2931485" fill="#D6D2E7" d="
			M-152.932-68.197c0,0.941-0.763,1.705-1.704,1.706c-0.941,0-1.705-0.763-1.705-1.704c0,0,0-0.001,0-0.001
			c0-0.941,0.762-1.705,1.704-1.705s1.705,0.762,1.706,1.704C-152.932-68.198-152.932-68.197-152.932-68.197z"/>
		
			<path id="path3143-5" sodipodi:type="arc" sodipodi:ry="4.2931485" sodipodi:cx="97.732262" sodipodi:cy="240.45209" sodipodi:rx="4.2931485" fill="#D6D2E7" d="
			M-152.932-62.105c0,0.941-0.763,1.705-1.704,1.705s-1.705-0.763-1.705-1.704v-0.001c0-0.942,0.762-1.705,1.704-1.706
			c0.941,0,1.705,0.763,1.706,1.704C-152.932-62.106-152.932-62.105-152.932-62.105z"/>
		
			<path id="path3143-0" sodipodi:type="arc" sodipodi:ry="4.2931485" sodipodi:cx="97.732262" sodipodi:cy="240.45209" sodipodi:rx="4.2931485" fill="#D6D2E7" d="
			M-146.793-62.105c0,0.941-0.763,1.705-1.704,1.705s-1.705-0.763-1.705-1.704v-0.001c0-0.942,0.762-1.705,1.704-1.706
			c0.941,0,1.705,0.763,1.706,1.704C-146.793-62.106-146.793-62.105-146.793-62.105z"/>
		
			<path id="path3143-2" sodipodi:type="arc" sodipodi:ry="4.2931485" sodipodi:cx="97.732262" sodipodi:cy="240.45209" sodipodi:rx="4.2931485" fill="#D6D2E7" d="
			M-135.022-86.12c0,0.941-0.762,1.705-1.704,1.706c-0.942,0-1.705-0.763-1.706-1.704c0,0,0-0.001,0-0.001
			c0-0.941,0.762-1.705,1.704-1.706c0.941,0,1.705,0.763,1.706,1.704C-135.022-86.121-135.022-86.12-135.022-86.12z"/>
		
			<path id="path3023-7-1" sodipodi:type="arc" sodipodi:ry="4.9244938" sodipodi:cx="126.64787" sodipodi:cy="211.03139" sodipodi:rx="4.9244938" fill="#D6D2E7" d="
			M-158.517-68.197c0,1.08-0.875,1.956-1.955,1.956c-1.08,0-1.956-0.875-1.956-1.956l0,0c0-1.08,0.875-1.955,1.956-1.955
			C-159.392-70.152-158.517-69.276-158.517-68.197z"/>
		
			<path id="path3267-8" sodipodi:type="arc" sodipodi:ry="3.1567266" sodipodi:cx="187.50957" sodipodi:cy="256.74078" sodipodi:rx="3.1567266" fill="#D6D2E7" d="
			M-129.165-80.241c0,0.692-0.56,1.254-1.251,1.255c-0.692,0.001-1.254-0.559-1.255-1.251c0-0.001,0-0.002,0-0.004
			c-0.001-0.692,0.559-1.254,1.251-1.255c0.692-0.001,1.254,0.56,1.255,1.251C-129.165-80.244-129.165-80.243-129.165-80.241z"/>
		
			<path id="path3267-07" sodipodi:type="arc" sodipodi:ry="3.1567266" sodipodi:cx="187.50957" sodipodi:cy="256.74078" sodipodi:rx="3.1567266" fill="#D6D2E7" d="
			M-129.165-74.012c0,0.693-0.56,1.254-1.251,1.256c-0.692,0-1.254-0.56-1.255-1.252c0-0.001,0-0.002,0-0.004
			c-0.001-0.692,0.559-1.254,1.251-1.255c0.692-0.001,1.254,0.559,1.255,1.251C-129.165-74.015-129.165-74.013-129.165-74.012z"/>
		
			<path id="path3267-82" sodipodi:type="arc" sodipodi:ry="3.1567266" sodipodi:cx="187.50957" sodipodi:cy="256.74078" sodipodi:rx="3.1567266" fill="#D6D2E7" d="
			M-129.165-68.197c0,0.692-0.56,1.254-1.251,1.255c-0.692,0.001-1.254-0.559-1.255-1.252c0,0,0-0.002,0-0.003
			c-0.001-0.692,0.559-1.254,1.251-1.255c0.692-0.001,1.254,0.559,1.255,1.251C-129.165-68.199-129.165-68.198-129.165-68.197z"/>
		
			<path id="path3267-7" sodipodi:type="arc" sodipodi:ry="3.1567266" sodipodi:cx="187.50957" sodipodi:cy="256.74078" sodipodi:rx="3.1567266" fill="#D6D2E7" d="
			M-141.295-62.105c0.001,0.692-0.559,1.254-1.251,1.255c-0.692,0.001-1.254-0.559-1.255-1.251c0-0.001,0-0.002,0-0.003
			c-0.001-0.692,0.559-1.254,1.251-1.255s1.254,0.559,1.255,1.251C-141.295-62.108-141.295-62.106-141.295-62.105z"/>
		
			<path id="path3267-77" sodipodi:type="arc" sodipodi:ry="3.1567266" sodipodi:cx="187.50957" sodipodi:cy="256.74078" sodipodi:rx="3.1567266" fill="#D6D2E7" d="
			M-135.474-62.105c0.001,0.692-0.56,1.254-1.251,1.255c-0.692,0.001-1.254-0.559-1.255-1.251c0-0.001,0-0.002,0-0.003
			c-0.001-0.692,0.559-1.254,1.251-1.255s1.254,0.559,1.255,1.251C-135.474-62.108-135.474-62.106-135.474-62.105z"/>
	</g>
	<g id="eye_white">
		
			<path id="path3036" sodipodi:type="arc" sodipodi:ry="6.0609155" sodipodi:cx="111.8744" sodipodi:cy="149.53835" sodipodi:rx="6.0609155" fill="#D6D2E7" d="
			M-146.092-98.403c0,1.329-1.078,2.407-2.406,2.407c-1.329,0-2.407-1.078-2.407-2.407s1.078-2.406,2.407-2.406
			C-147.169-100.809-146.092-99.732-146.092-98.403z"/>
		
			<path id="path3036-0" sodipodi:type="arc" sodipodi:ry="6.0609155" sodipodi:cx="111.8744" sodipodi:cy="149.53835" sodipodi:rx="6.0609155" fill="#D6D2E7" d="
			M-140.142-98.403c0,1.329-1.078,2.407-2.407,2.407s-2.406-1.078-2.406-2.407s1.077-2.406,2.406-2.406
			S-140.142-99.732-140.142-98.403z"/>
		
			<path id="path3036-0-5" sodipodi:type="arc" sodipodi:ry="6.0609155" sodipodi:cx="111.8744" sodipodi:cy="149.53835" sodipodi:rx="6.0609155" fill="#D6D2E7" d="
			M-134.32-98.403c0,1.329-1.078,2.407-2.407,2.407s-2.407-1.078-2.407-2.407s1.078-2.406,2.407-2.406S-134.32-99.732-134.32-98.403
			z"/>
		
			<path id="path3036-09" sodipodi:type="arc" sodipodi:ry="6.0609155" sodipodi:cx="111.8744" sodipodi:cy="149.53835" sodipodi:rx="6.0609155" fill="#D6D2E7" d="
			M-146.092-49.721c0,1.329-1.078,2.406-2.406,2.406c-1.329,0-2.407-1.077-2.407-2.406s1.078-2.406,2.407-2.406
			C-147.169-52.128-146.092-51.051-146.092-49.721z"/>
		
			<path id="path3036-0-1" sodipodi:type="arc" sodipodi:ry="6.0609155" sodipodi:cx="111.8744" sodipodi:cy="149.53835" sodipodi:rx="6.0609155" fill="#D6D2E7" d="
			M-140.142-49.721c0,1.329-1.078,2.406-2.407,2.406s-2.406-1.077-2.406-2.406s1.077-2.406,2.406-2.406
			S-140.142-51.051-140.142-49.721z"/>
		
			<path id="path3036-0-5-9" sodipodi:type="arc" sodipodi:ry="6.0609155" sodipodi:cx="111.8744" sodipodi:cy="149.53835" sodipodi:rx="6.0609155" fill="#D6D2E7" d="
			M-134.32-49.721c0,1.329-1.078,2.406-2.407,2.406s-2.407-1.077-2.407-2.406s1.078-2.406,2.407-2.406S-134.32-51.051-134.32-49.721
			z"/>
		
			<path id="path3036-09-0" sodipodi:type="arc" sodipodi:ry="6.0609155" sodipodi:cx="111.8744" sodipodi:cy="149.53835" sodipodi:rx="6.0609155" fill="#D6D2E7" d="
			M-158.065-92.286c0,1.329-1.077,2.406-2.406,2.406s-2.407-1.077-2.407-2.406s1.078-2.407,2.407-2.407
			S-158.065-93.615-158.065-92.286z"/>
		
			<path id="path3036-0-1-5" sodipodi:type="arc" sodipodi:ry="6.0609155" sodipodi:cx="111.8744" sodipodi:cy="149.53835" sodipodi:rx="6.0609155" fill="#D6D2E7" d="
			M-152.23-92.286c0,1.329-1.077,2.406-2.407,2.406c-1.329,0-2.406-1.077-2.406-2.406s1.078-2.407,2.406-2.407
			C-153.308-94.693-152.23-93.615-152.23-92.286z"/>
		
			<path id="path3036-09-6" sodipodi:type="arc" sodipodi:ry="6.0609155" sodipodi:cx="111.8744" sodipodi:cy="149.53835" sodipodi:rx="6.0609155" fill="#D6D2E7" d="
			M-128.012-92.286c0,1.329-1.078,2.406-2.406,2.406c-1.33,0-2.407-1.077-2.407-2.406s1.077-2.407,2.407-2.407
			C-129.09-94.693-128.012-93.615-128.012-92.286z"/>
		
			<path id="path3036-0-1-52" sodipodi:type="arc" sodipodi:ry="6.0609155" sodipodi:cx="111.8744" sodipodi:cy="149.53835" sodipodi:rx="6.0609155" fill="#D6D2E7" d="
			M-122.027-92.286c0,1.329-1.077,2.406-2.407,2.406c-1.329,0-2.406-1.077-2.406-2.406s1.078-2.407,2.406-2.407
			C-123.104-94.693-122.027-93.615-122.027-92.286z"/>
		
			<path id="path3036-09-3" sodipodi:type="arc" sodipodi:ry="6.0609155" sodipodi:cx="111.8744" sodipodi:cy="149.53835" sodipodi:rx="6.0609155" fill="#D6D2E7" d="
			M-170.307-80.241c0,1.329-1.077,2.406-2.406,2.406s-2.407-1.077-2.407-2.406s1.078-2.406,2.407-2.406
			S-170.307-81.571-170.307-80.241z"/>
		
			<path id="path3036-0-1-1" sodipodi:type="arc" sodipodi:ry="6.0609155" sodipodi:cx="111.8744" sodipodi:cy="149.53835" sodipodi:rx="6.0609155" fill="#D6D2E7" d="
			M-164.263-80.241c0,1.329-1.077,2.406-2.406,2.406s-2.406-1.077-2.406-2.406s1.077-2.406,2.406-2.406
			S-164.263-81.571-164.263-80.241z"/>
		
			<path id="path3036-09-5" sodipodi:type="arc" sodipodi:ry="6.0609155" sodipodi:cx="111.8744" sodipodi:cy="149.53835" sodipodi:rx="6.0609155" fill="#D6D2E7" d="
			M-170.307-74.012c0,1.33-1.077,2.407-2.406,2.407s-2.407-1.077-2.407-2.407c0-1.329,1.078-2.406,2.407-2.406
			S-170.307-75.341-170.307-74.012z"/>
		
			<path id="path3036-0-1-6" sodipodi:type="arc" sodipodi:ry="6.0609155" sodipodi:cx="111.8744" sodipodi:cy="149.53835" sodipodi:rx="6.0609155" fill="#D6D2E7" d="
			M-164.263-74.012c0,1.33-1.077,2.407-2.406,2.407s-2.406-1.077-2.406-2.407c0-1.329,1.077-2.406,2.406-2.406
			S-164.263-75.341-164.263-74.012z"/>
		
			<path id="path3036-09-7" sodipodi:type="arc" sodipodi:ry="6.0609155" sodipodi:cx="111.8744" sodipodi:cy="149.53835" sodipodi:rx="6.0609155" fill="#D6D2E7" d="
			M-170.307-68.197c0,1.329-1.077,2.407-2.406,2.407s-2.407-1.078-2.407-2.407s1.078-2.407,2.407-2.407
			S-170.307-69.526-170.307-68.197z"/>
		
			<path id="path3036-0-1-4" sodipodi:type="arc" sodipodi:ry="6.0609155" sodipodi:cx="111.8744" sodipodi:cy="149.53835" sodipodi:rx="6.0609155" fill="#D6D2E7" d="
			M-164.263-68.197c0,1.329-1.077,2.407-2.406,2.407s-2.406-1.078-2.406-2.407s1.077-2.407,2.406-2.407
			S-164.263-69.526-164.263-68.197z"/>
		
			<path id="path3036-0-1-1-4" sodipodi:type="arc" sodipodi:ry="6.0609155" sodipodi:cx="111.8744" sodipodi:cy="149.53835" sodipodi:rx="6.0609155" fill="#D6D2E7" d="
			M-115.832-80.241c0,1.329-1.078,2.406-2.407,2.406s-2.406-1.077-2.406-2.406s1.077-2.406,2.406-2.406
			S-115.832-81.571-115.832-80.241z"/>
		
			<path id="path3036-0-5-9-1-1" sodipodi:type="arc" sodipodi:ry="6.0609155" sodipodi:cx="111.8744" sodipodi:cy="149.53835" sodipodi:rx="6.0609155" fill="#D6D2E7" d="
			M-109.782-80.241c0,1.329-1.078,2.406-2.407,2.406s-2.406-1.077-2.406-2.406s1.077-2.406,2.406-2.406
			S-109.782-81.571-109.782-80.241z"/>
		
			<path id="path3036-0-1-6-0" sodipodi:type="arc" sodipodi:ry="6.0609155" sodipodi:cx="111.8744" sodipodi:cy="149.53835" sodipodi:rx="6.0609155" fill="#D6D2E7" d="
			M-115.832-74.012c0,1.33-1.078,2.407-2.407,2.407s-2.406-1.077-2.406-2.407c0-1.329,1.077-2.406,2.406-2.406
			S-115.832-75.341-115.832-74.012z"/>
		
			<path id="path3036-0-5-9-7-9" sodipodi:type="arc" sodipodi:ry="6.0609155" sodipodi:cx="111.8744" sodipodi:cy="149.53835" sodipodi:rx="6.0609155" fill="#D6D2E7" d="
			M-109.782-74.012c0,1.33-1.078,2.407-2.407,2.407s-2.406-1.077-2.406-2.407c0-1.329,1.077-2.406,2.406-2.406
			S-109.782-75.341-109.782-74.012z"/>
		
			<path id="path3036-0-1-4-8" sodipodi:type="arc" sodipodi:ry="6.0609155" sodipodi:cx="111.8744" sodipodi:cy="149.53835" sodipodi:rx="6.0609155" fill="#D6D2E7" d="
			M-115.832-68.197c0,1.329-1.078,2.407-2.407,2.407s-2.406-1.078-2.406-2.407s1.077-2.407,2.406-2.407
			S-115.832-69.526-115.832-68.197z"/>
		
			<path id="path3036-0-5-9-06-5" sodipodi:type="arc" sodipodi:ry="6.0609155" sodipodi:cx="111.8744" sodipodi:cy="149.53835" sodipodi:rx="6.0609155" fill="#D6D2E7" d="
			M-109.782-68.197c0,1.329-1.078,2.407-2.407,2.407s-2.406-1.078-2.406-2.407s1.077-2.407,2.406-2.407
			S-109.782-69.526-109.782-68.197z"/>
		
			<path id="path3036-09-6-4" sodipodi:type="arc" sodipodi:ry="6.0609155" sodipodi:cx="111.8744" sodipodi:cy="149.53835" sodipodi:rx="6.0609155" fill="#D6D2E7" d="
			M-128.012-55.988c0,1.329-1.078,2.406-2.406,2.406c-1.33,0-2.407-1.078-2.407-2.406c0-1.33,1.077-2.407,2.407-2.407
			C-129.09-58.395-128.012-57.318-128.012-55.988z"/>
		
			<path id="path3036-0-1-52-2" sodipodi:type="arc" sodipodi:ry="6.0609155" sodipodi:cx="111.8744" sodipodi:cy="149.53835" sodipodi:rx="6.0609155" fill="#D6D2E7" d="
			M-122.027-55.988c0,1.329-1.077,2.406-2.407,2.406c-1.329,0-2.406-1.078-2.406-2.406c0-1.33,1.078-2.407,2.406-2.407
			C-123.104-58.395-122.027-57.318-122.027-55.988z"/>
		
			<path id="path3036-09-6-8" sodipodi:type="arc" sodipodi:ry="6.0609155" sodipodi:cx="111.8744" sodipodi:cy="149.53835" sodipodi:rx="6.0609155" fill="#D6D2E7" d="
			M-158.065-55.988c0,1.329-1.077,2.406-2.406,2.406s-2.407-1.078-2.407-2.406c0-1.33,1.078-2.407,2.407-2.407
			S-158.065-57.318-158.065-55.988z"/>
		
			<path id="path3036-0-1-52-6" sodipodi:type="arc" sodipodi:ry="6.0609155" sodipodi:cx="111.8744" sodipodi:cy="149.53835" sodipodi:rx="6.0609155" fill="#D6D2E7" d="
			M-152.23-55.988c0,1.329-1.077,2.406-2.407,2.406c-1.329,0-2.406-1.078-2.406-2.406c0-1.33,1.078-2.407,2.406-2.407
			C-153.308-58.395-152.23-57.318-152.23-55.988z"/>
		
			<path id="path3036-0-1-1-4-9" sodipodi:type="arc" sodipodi:ry="6.0609155" sodipodi:cx="111.8744" sodipodi:cy="149.53835" sodipodi:rx="6.0609155" fill="#D6D2E7" d="
			M-146.092-80.241c0,1.329-1.078,2.406-2.406,2.406c-1.329,0-2.407-1.077-2.407-2.406s1.078-2.406,2.407-2.406
			C-147.169-82.648-146.092-81.571-146.092-80.241z"/>
		
			<path id="path3036-0-5-9-1-1-2" sodipodi:type="arc" sodipodi:ry="6.0609155" sodipodi:cx="111.8744" sodipodi:cy="149.53835" sodipodi:rx="6.0609155" fill="#D6D2E7" d="
			M-140.142-80.241c0,1.329-1.078,2.406-2.407,2.406s-2.406-1.077-2.406-2.406s1.077-2.406,2.406-2.406
			S-140.142-81.571-140.142-80.241z"/>
		
			<path id="path3036-0-5-9-7-4" sodipodi:type="arc" sodipodi:ry="6.0609155" sodipodi:cx="111.8744" sodipodi:cy="149.53835" sodipodi:rx="6.0609155" fill="#D6D2E7" d="
			M-164.263-86.12c0,1.329-1.077,2.406-2.406,2.406s-2.406-1.077-2.406-2.406s1.077-2.406,2.406-2.406
			S-164.263-87.449-164.263-86.12z"/>
		
			<path id="path3036-0-5-9-7-8" sodipodi:type="arc" sodipodi:ry="6.0609155" sodipodi:cx="111.8744" sodipodi:cy="149.53835" sodipodi:rx="6.0609155" fill="#D6D2E7" d="
			M-164.263-62.105c0,1.329-1.077,2.406-2.406,2.406s-2.406-1.078-2.406-2.406c0-1.33,1.077-2.407,2.406-2.407
			S-164.263-63.434-164.263-62.105z"/>
		
			<path id="path3036-0-5-9-7-49" sodipodi:type="arc" sodipodi:ry="6.0609155" sodipodi:cx="111.8744" sodipodi:cy="149.53835" sodipodi:rx="6.0609155" fill="#D6D2E7" d="
			M-115.832-86.12c0,1.329-1.078,2.406-2.407,2.406s-2.406-1.077-2.406-2.406s1.077-2.406,2.406-2.406
			S-115.832-87.449-115.832-86.12z"/>
		
			<path id="path3036-0-5-9-7-90" sodipodi:type="arc" sodipodi:ry="6.0609155" sodipodi:cx="111.8744" sodipodi:cy="149.53835" sodipodi:rx="6.0609155" fill="#D6D2E7" d="
			M-115.832-62.105c0,1.329-1.078,2.406-2.407,2.406s-2.406-1.078-2.406-2.406c0-1.33,1.077-2.407,2.406-2.407
			S-115.832-63.434-115.832-62.105z"/>
		
			<path id="path3023-15" sodipodi:type="arc" sodipodi:ry="4.9244938" sodipodi:cx="126.64787" sodipodi:cy="211.03139" sodipodi:rx="4.9244938" fill="#D6D2E7" d="
			M-158.517-86.12c0,1.08-0.875,1.955-1.955,1.955c-1.08,0-1.956-0.875-1.956-1.955c0-1.08,0.875-1.955,1.956-1.955
			C-159.392-88.075-158.517-87.199-158.517-86.12z"/>
		
			<path id="path3023-9" sodipodi:type="arc" sodipodi:ry="4.9244938" sodipodi:cx="126.64787" sodipodi:cy="211.03139" sodipodi:rx="4.9244938" fill="#D6D2E7" d="
			M-146.543-86.12c0,1.08-0.875,1.955-1.955,1.955c-1.08,0-1.956-0.875-1.956-1.955c0-1.08,0.875-1.955,1.956-1.955
			C-147.418-88.075-146.543-87.199-146.543-86.12z"/>
		
			<path id="path3023-8" sodipodi:type="arc" sodipodi:ry="4.9244938" sodipodi:cx="126.64787" sodipodi:cy="211.03139" sodipodi:rx="4.9244938" fill="#D6D2E7" d="
			M-140.593-86.12c0,1.08-0.876,1.955-1.956,1.955c-1.08,0-1.955-0.875-1.955-1.955c0-1.08,0.875-1.955,1.955-1.955
			C-141.469-88.075-140.593-87.199-140.593-86.12z"/>
		
			<path id="path3023-4" sodipodi:type="arc" sodipodi:ry="4.9244938" sodipodi:cx="126.64787" sodipodi:cy="211.03139" sodipodi:rx="4.9244938" fill="#D6D2E7" d="
			M-122.478-86.12c0,1.08-0.875,1.955-1.956,1.955c-1.08,0-1.955-0.875-1.955-1.955c0-1.08,0.875-1.955,1.955-1.955
			C-123.354-88.075-122.478-87.199-122.478-86.12z"/>
		
			<path id="path3023-0" sodipodi:type="arc" sodipodi:ry="4.9244938" sodipodi:cx="126.64787" sodipodi:cy="211.03139" sodipodi:rx="4.9244938" fill="#D6D2E7" d="
			M-152.682-80.241c0,1.08-0.875,1.956-1.956,1.956c-1.08,0-1.955-0.876-1.955-1.956c0-1.08,0.875-1.955,1.955-1.955
			C-153.557-82.197-152.682-81.322-152.682-80.241z"/>
		
			<path id="path3023-3" sodipodi:type="arc" sodipodi:ry="4.9244938" sodipodi:cx="126.64787" sodipodi:cy="211.03139" sodipodi:rx="4.9244938" fill="#D6D2E7" d="
			M-140.593-74.012c0,1.08-0.876,1.956-1.956,1.956c-1.08,0-1.955-0.875-1.955-1.956c0-1.08,0.875-1.955,1.955-1.955
			C-141.469-75.968-140.593-75.092-140.593-74.012z"/>
		
			<path id="path3023-31" sodipodi:type="arc" sodipodi:ry="4.9244938" sodipodi:cx="126.64787" sodipodi:cy="211.03139" sodipodi:rx="4.9244938" fill="#D6D2E7" d="
			M-122.478-62.105c0,1.08-0.875,1.955-1.956,1.955c-1.08,0-1.955-0.875-1.955-1.955c0-1.08,0.875-1.956,1.955-1.956
			C-123.354-64.06-122.478-63.185-122.478-62.105z"/>
		
			<path id="path3023-7" sodipodi:type="arc" sodipodi:ry="4.9244938" sodipodi:cx="126.64787" sodipodi:cy="211.03139" sodipodi:rx="4.9244938" fill="#D6D2E7" d="
			M-158.517-62.105c0,1.08-0.875,1.955-1.955,1.955c-1.08,0-1.956-0.875-1.956-1.955c0-1.08,0.875-1.956,1.956-1.956
			C-159.392-64.06-158.517-63.185-158.517-62.105z"/>
		
			<path id="path3023-5" sodipodi:type="arc" sodipodi:ry="4.9244938" sodipodi:cx="126.64787" sodipodi:cy="211.03139" sodipodi:rx="4.9244938" fill="#D6D2E7" d="
			M-146.543-74.012c0,1.08-0.875,1.956-1.955,1.956c-1.08,0-1.956-0.875-1.956-1.956c0-1.08,0.875-1.955,1.956-1.955
			C-147.418-75.968-146.543-75.092-146.543-74.012z"/>
		
			<path id="path3143" sodipodi:type="arc" sodipodi:ry="4.2931485" sodipodi:cx="97.732262" sodipodi:cy="240.45209" sodipodi:rx="4.2931485" fill="#D6D2E7" d="
			M-164.965-92.286c0,0.941-0.763,1.705-1.705,1.705s-1.705-0.763-1.705-1.705s0.763-1.705,1.705-1.705
			S-164.965-93.228-164.965-92.286L-164.965-92.286z"/>
		
			<path id="path3143-6" sodipodi:type="arc" sodipodi:ry="4.2931485" sodipodi:cx="97.732262" sodipodi:cy="240.45209" sodipodi:rx="4.2931485" fill="#D6D2E7" d="
			M-152.932-74.012c0,0.942-0.764,1.705-1.705,1.705c-0.941,0-1.704-0.763-1.704-1.705c0-0.941,0.763-1.704,1.704-1.704
			C-153.696-75.717-152.932-74.954-152.932-74.012z"/>
		
			<path id="path3143-8" sodipodi:type="arc" sodipodi:ry="4.2931485" sodipodi:cx="97.732262" sodipodi:cy="240.45209" sodipodi:rx="4.2931485" fill="#D6D2E7" d="
			M-152.932-49.721c0,0.941-0.764,1.705-1.705,1.705c-0.941,0-1.704-0.763-1.704-1.705s0.763-1.705,1.704-1.705
			C-153.696-51.426-152.932-50.663-152.932-49.721z"/>
		
			<path id="path3143-04" sodipodi:type="arc" sodipodi:ry="4.2931485" sodipodi:cx="97.732262" sodipodi:cy="240.45209" sodipodi:rx="4.2931485" fill="#D6D2E7" d="
			M-128.714-49.721c0,0.941-0.763,1.705-1.704,1.705s-1.705-0.763-1.705-1.705s0.764-1.705,1.705-1.705
			S-128.714-50.663-128.714-49.721z"/>
		
			<path id="path3143-1" sodipodi:type="arc" sodipodi:ry="4.2931485" sodipodi:cx="97.732262" sodipodi:cy="240.45209" sodipodi:rx="4.2931485" fill="#D6D2E7" d="
			M-164.965-55.988c0,0.941-0.763,1.704-1.705,1.704s-1.705-0.763-1.705-1.704c0-0.942,0.763-1.705,1.705-1.705
			S-164.965-56.93-164.965-55.988L-164.965-55.988z"/>
		
			<path id="path3143-13" sodipodi:type="arc" sodipodi:ry="4.2931485" sodipodi:cx="97.732262" sodipodi:cy="240.45209" sodipodi:rx="4.2931485" fill="#D6D2E7" d="
			M-177.17-74.012c0,0.942-0.763,1.705-1.705,1.705s-1.705-0.763-1.705-1.705c0-0.941,0.763-1.704,1.705-1.704
			S-177.17-74.954-177.17-74.012z"/>
		
			<path id="path3143-59" sodipodi:type="arc" sodipodi:ry="4.2931485" sodipodi:cx="97.732262" sodipodi:cy="240.45209" sodipodi:rx="4.2931485" fill="#D6D2E7" d="
			M-104.875-74.012c0,0.942-0.763,1.705-1.704,1.705c-0.942,0-1.705-0.763-1.705-1.705c0-0.941,0.763-1.704,1.705-1.704
			C-105.638-75.717-104.875-74.954-104.875-74.012z"/>
		
			<path id="path3143-56" sodipodi:type="arc" sodipodi:ry="4.2931485" sodipodi:cx="97.732262" sodipodi:cy="240.45209" sodipodi:rx="4.2931485" fill="#D6D2E7" d="
			M-152.932-98.403c0,0.941-0.764,1.705-1.705,1.705c-0.941,0-1.704-0.763-1.704-1.705s0.763-1.705,1.704-1.705
			C-153.696-100.108-152.932-99.344-152.932-98.403z"/>
		
			<path id="path3143-599" sodipodi:type="arc" sodipodi:ry="4.2931485" sodipodi:cx="97.732262" sodipodi:cy="240.45209" sodipodi:rx="4.2931485" fill="#D6D2E7" d="
			M-128.714-98.403c0,0.941-0.763,1.705-1.704,1.705s-1.705-0.763-1.705-1.705s0.764-1.705,1.705-1.705
			S-128.714-99.344-128.714-98.403z"/>
		
			<path id="path3143-37" sodipodi:type="arc" sodipodi:ry="4.2931485" sodipodi:cx="97.732262" sodipodi:cy="240.45209" sodipodi:rx="4.2931485" fill="#D6D2E7" d="
			M-116.534-92.286c0,0.941-0.763,1.705-1.705,1.705s-1.705-0.763-1.705-1.705s0.763-1.705,1.705-1.705
			S-116.534-93.228-116.534-92.286z"/>
		
			<path id="path3267" sodipodi:type="arc" sodipodi:ry="3.1567266" sodipodi:cx="187.50957" sodipodi:cy="256.74078" sodipodi:rx="3.1567266" fill="#D6D2E7" d="
			M-171.46-86.12c0,0.692-0.562,1.253-1.253,1.253c-0.692,0-1.253-0.561-1.253-1.253s0.561-1.253,1.253-1.253
			C-172.021-87.373-171.46-86.812-171.46-86.12z"/>
		
			<path id="path3267-0" sodipodi:type="arc" sodipodi:ry="3.1567266" sodipodi:cx="187.50957" sodipodi:cy="256.74078" sodipodi:rx="3.1567266" fill="#D6D2E7" d="
			M-110.936-86.12c0,0.692-0.561,1.253-1.253,1.253c-0.692,0-1.253-0.561-1.253-1.253s0.562-1.253,1.253-1.253
			C-111.497-87.373-110.936-86.812-110.936-86.12z"/>
		
			<path id="path3267-5" sodipodi:type="arc" sodipodi:ry="3.1567266" sodipodi:cx="187.50957" sodipodi:cy="256.74078" sodipodi:rx="3.1567266" fill="#D6D2E7" d="
			M-135.474-80.241c0,0.692-0.561,1.253-1.253,1.253s-1.253-0.561-1.253-1.253s0.561-1.253,1.253-1.253
			S-135.474-80.934-135.474-80.241z"/>
		
			<path id="path3267-55" sodipodi:type="arc" sodipodi:ry="3.1567266" sodipodi:cx="187.50957" sodipodi:cy="256.74078" sodipodi:rx="3.1567266" fill="#D6D2E7" d="
			M-135.474-74.012c0,0.693-0.561,1.253-1.253,1.253s-1.253-0.561-1.253-1.253c0-0.692,0.561-1.253,1.253-1.253
			S-135.474-74.704-135.474-74.012z"/>
		
			<path id="path3267-3" sodipodi:type="arc" sodipodi:ry="3.1567266" sodipodi:cx="187.50957" sodipodi:cy="256.74078" sodipodi:rx="3.1567266" fill="#D6D2E7" d="
			M-147.245-68.197c0,0.692-0.562,1.254-1.253,1.254c-0.692,0-1.253-0.562-1.253-1.254c0-0.692,0.561-1.253,1.253-1.253
			C-147.806-69.45-147.245-68.888-147.245-68.197z"/>
		
			<path id="path3267-30" sodipodi:type="arc" sodipodi:ry="3.1567266" sodipodi:cx="187.50957" sodipodi:cy="256.74078" sodipodi:rx="3.1567266" fill="#D6D2E7" d="
			M-171.46-62.105c0,0.692-0.562,1.253-1.253,1.253c-0.692,0-1.253-0.562-1.253-1.253c0-0.692,0.561-1.254,1.253-1.254
			C-172.021-63.359-171.46-62.797-171.46-62.105z"/>
		
			<path id="path3267-9" sodipodi:type="arc" sodipodi:ry="3.1567266" sodipodi:cx="187.50957" sodipodi:cy="256.74078" sodipodi:rx="3.1567266" fill="#D6D2E7" d="
			M-110.936-62.105c0,0.692-0.561,1.253-1.253,1.253c-0.692,0-1.253-0.562-1.253-1.253c0-0.692,0.562-1.254,1.253-1.254
			C-111.497-63.359-110.936-62.797-110.936-62.105z"/>
		
			<path id="path3267-89" sodipodi:type="arc" sodipodi:ry="3.1567266" sodipodi:cx="187.50957" sodipodi:cy="256.74078" sodipodi:rx="3.1567266" fill="#D6D2E7" d="
			M-116.985-55.988c0,0.691-0.561,1.253-1.253,1.253s-1.253-0.562-1.253-1.253c0-0.693,0.561-1.254,1.253-1.254
			S-116.985-56.681-116.985-55.988z"/>
		
			<path id="path3364" sodipodi:type="arc" sodipodi:ry="2.2728431" sodipodi:cx="125.76399" sodipodi:cy="225.04726" sodipodi:rx="2.2728431" fill="#D6D2E7" d="
			M-141.646-68.197c0,0.499-0.404,0.902-0.902,0.902s-0.902-0.404-0.902-0.902c0-0.498,0.404-0.902,0.902-0.902
			S-141.646-68.695-141.646-68.197L-141.646-68.197z"/>
	</g>
	<g id="golem" transform="scale(0.96109423,1.0404807)">
		<path id="path3145" inkscape:connector-curvature="0" fill="#D6D2E7" d="M-81.502-68.295c-0.954,1.262-2.003,2.19-3.15,2.782
			c-1.147,0.593-2.474,0.889-3.981,0.889c-2.641,0-4.824-1.037-6.551-3.111c-1.726-2.087-2.589-4.741-2.589-7.961
			c0-3.233,0.863-5.881,2.589-7.942c1.726-2.074,3.91-3.111,6.551-3.111c1.507,0,2.834,0.296,3.981,0.889
			c1.147,0.593,2.196,1.527,3.15,2.802v-3.208h6.956v19.459c0,3.479-1.101,6.132-3.304,7.962c-2.19,1.842-5.372,2.763-9.546,2.763
			c-1.353,0-2.661-0.103-3.923-0.309c-1.263-0.206-2.532-0.522-3.807-0.947v-5.391c1.211,0.695,2.396,1.211,3.556,1.546
			c1.159,0.348,2.325,0.522,3.497,0.522c2.267,0,3.93-0.496,4.985-1.488c1.057-0.992,1.585-2.544,1.585-4.657V-68.295
			 M-86.063-81.764c-1.43,0-2.544,0.528-3.343,1.585c-0.799,1.056-1.198,2.551-1.198,4.483c0,1.984,0.387,3.491,1.159,4.522
			c0.773,1.018,1.9,1.527,3.382,1.527c1.443,0,2.564-0.528,3.362-1.585c0.799-1.056,1.198-2.544,1.198-4.464
			c0-1.932-0.399-3.427-1.198-4.483C-83.5-81.235-84.62-81.763-86.063-81.764"/>
		<path id="path3147" inkscape:connector-curvature="0" fill="#D6D2E7" d="M-59.867-81.841c-1.533,0-2.705,0.554-3.517,1.662
			c-0.799,1.095-1.198,2.68-1.198,4.754c0,2.074,0.399,3.665,1.198,4.773c0.811,1.095,1.983,1.643,3.517,1.643
			c1.507,0,2.66-0.547,3.459-1.643c0.799-1.108,1.198-2.699,1.198-4.773c0-2.074-0.399-3.659-1.198-4.754
			C-57.207-81.287-58.359-81.841-59.867-81.841 M-59.867-86.788c3.723,0,6.628,1.005,8.715,3.015c2.1,2.01,3.15,4.792,3.15,8.348
			c0,3.555-1.05,6.338-3.15,8.348c-2.087,2.009-4.992,3.015-8.715,3.015c-3.736,0-6.661-1.005-8.773-3.015
			c-2.1-2.009-3.15-4.792-3.15-8.348c0-3.556,1.05-6.338,3.15-8.348C-66.527-85.783-63.603-86.788-59.867-86.788"/>
		<path id="path3149" inkscape:connector-curvature="0" fill="#D6D2E7" d="M-45.265-94.691h6.918v30.068h-6.918V-94.691"/>
		<path id="path3151" inkscape:connector-curvature="0" fill="#D6D2E7" d="M-12.363-75.502v1.971h-16.174
			c0.167,1.623,0.753,2.841,1.758,3.652c1.004,0.811,2.409,1.217,4.212,1.217c1.456,0,2.944-0.212,4.464-0.637
			c1.533-0.438,3.105-1.095,4.715-1.971v5.333c-1.636,0.618-3.272,1.082-4.908,1.391c-1.636,0.322-3.272,0.483-4.908,0.483
			c-3.917,0-6.963-0.992-9.141-2.976c-2.164-1.996-3.246-4.792-3.246-8.386c0-3.53,1.063-6.306,3.189-8.329
			c2.138-2.023,5.075-3.034,8.812-3.034c3.401,0,6.119,1.024,8.154,3.072C-13.387-81.667-12.363-78.929-12.363-75.502
			 M-19.474-77.802c0-1.314-0.386-2.37-1.159-3.169c-0.76-0.812-1.758-1.217-2.995-1.217c-1.34,0-2.428,0.38-3.266,1.14
			c-0.837,0.747-1.358,1.829-1.565,3.246H-19.474"/>
		<path id="path3153" inkscape:connector-curvature="0" fill="#D6D2E7" d="M10.606-82.672c0.876-1.34,1.913-2.358,3.111-3.053
			c1.211-0.709,2.538-1.063,3.981-1.063c2.486,0,4.38,0.766,5.681,2.3c1.301,1.533,1.952,3.761,1.952,6.686v13.179h-6.957v-11.285
			c0.013-0.168,0.019-0.341,0.019-0.522c0.013-0.18,0.019-0.438,0.019-0.773c0-1.533-0.225-2.641-0.676-3.323
			c-0.451-0.696-1.179-1.044-2.184-1.044c-1.314,0-2.332,0.541-3.053,1.623c-0.708,1.082-1.076,2.647-1.101,4.696v10.628H4.442
			v-11.285c0-2.396-0.206-3.935-0.619-4.618C3.412-81.223,2.676-81.57,1.62-81.57c-1.327,0-2.351,0.548-3.072,1.642
			c-0.721,1.082-1.082,2.635-1.082,4.657v10.648h-6.957v-21.643h6.957v3.169c0.85-1.224,1.823-2.145,2.918-2.763
			c1.108-0.619,2.325-0.928,3.652-0.928c1.494,0,2.815,0.361,3.961,1.082C9.144-84.984,10.013-83.973,10.606-82.672"/>
		<path id="path3155" inkscape:connector-curvature="0" fill="#D6D2E7" d="M30.232-72.102h6.957v7.479h-6.957V-72.102"/>
		<path id="path3157" inkscape:connector-curvature="0" fill="#D6D2E7" d="M57.008-83.097v-11.594h6.957v30.068h-6.957v-3.131
			c-0.953,1.276-2.003,2.209-3.149,2.802c-1.147,0.592-2.474,0.889-3.981,0.889c-2.667,0-4.856-1.057-6.57-3.169
			c-1.713-2.125-2.57-4.857-2.57-8.193s0.857-6.061,2.57-8.174c1.714-2.125,3.903-3.188,6.57-3.188c1.495,0,2.815,0.303,3.962,0.909
			C54.999-85.287,56.055-84.359,57.008-83.097 M52.448-69.087c1.481,0,2.608-0.541,3.382-1.623c0.786-1.082,1.179-2.654,1.179-4.715
			c0-2.062-0.393-3.633-1.179-4.715c-0.773-1.082-1.9-1.623-3.382-1.623c-1.469,0-2.596,0.541-3.382,1.623
			c-0.773,1.082-1.159,2.654-1.159,4.715c0,2.061,0.387,3.633,1.159,4.715C49.852-69.628,50.979-69.087,52.448-69.087"/>
		<path id="path3159" inkscape:connector-curvature="0" fill="#D6D2E7" d="M89.948-75.502v1.971H73.774
			c0.168,1.623,0.754,2.841,1.759,3.652c1.005,0.811,2.409,1.217,4.213,1.217c1.456,0,2.944-0.212,4.464-0.637
			c1.533-0.438,3.104-1.095,4.715-1.971v5.333c-1.636,0.618-3.272,1.082-4.908,1.391c-1.636,0.322-3.272,0.483-4.909,0.483
			c-3.916,0-6.963-0.992-9.14-2.976c-2.164-1.996-3.246-4.792-3.246-8.386c0-3.53,1.063-6.306,3.189-8.329
			c2.138-2.023,5.075-3.034,8.812-3.034c3.401,0,6.119,1.024,8.155,3.072C88.925-81.667,89.948-78.929,89.948-75.502 M82.837-77.802
			c0-1.314-0.387-2.37-1.159-3.169c-0.76-0.812-1.758-1.217-2.995-1.217c-1.34,0-2.428,0.38-3.266,1.14
			c-0.838,0.747-1.359,1.829-1.565,3.246H82.837"/>
	</g>
	<g id="IT-NEWS" transform="scale(0.96766482,1.0334157)">
		<path id="path3162" inkscape:connector-curvature="0" fill="#D6D2E7" d="M-69.487-57.061h1.218v9.001h-1.218V-57.061"/>
		<path id="path3164" inkscape:connector-curvature="0" fill="#D6D2E7" d="M-65.266-57.061h7.615v1.025h-3.196v7.977h-1.224v-7.977
			h-3.196V-57.061"/>
		<path id="path3166" inkscape:connector-curvature="0" fill="#D6D2E7" d="M-56.384-51.936h3.25v0.989h-3.25V-51.936"/>
		<path id="path3168" inkscape:connector-curvature="0" fill="#D6D2E7" d="M-49.486-57.061h1.64l3.991,7.531v-7.531h1.182v9.001
			h-1.64l-3.991-7.531v7.531h-1.182V-57.061"/>
		<path id="path3170" inkscape:connector-curvature="0" fill="#D6D2E7" d="M-38.422-57.061h5.692v1.025h-4.474v2.665h4.287v1.025
			h-4.287v3.262h4.583v1.025h-5.801V-57.061"/>
		<path id="path3172" inkscape:connector-curvature="0" fill="#D6D2E7" d="M-29.582-57.061h1.23l1.894,7.609l1.887-7.609h1.369
			l1.893,7.609l1.887-7.609h1.236l-2.261,9.001h-1.531l-1.899-7.814l-1.917,7.814h-1.532L-29.582-57.061"/>
		<path id="path3174" inkscape:connector-curvature="0" fill="#D6D2E7" d="M-9.353-56.766v1.188
			c-0.462-0.221-0.898-0.386-1.308-0.495c-0.41-0.108-0.806-0.163-1.188-0.163c-0.663,0-1.176,0.129-1.538,0.386
			c-0.358,0.257-0.536,0.623-0.536,1.097c0,0.398,0.119,0.7,0.355,0.904c0.241,0.201,0.695,0.364,1.363,0.489l0.736,0.151
			c0.908,0.172,1.577,0.478,2.007,0.916c0.434,0.434,0.651,1.017,0.651,1.748c0,0.872-0.293,1.534-0.879,1.984
			c-0.583,0.45-1.44,0.675-2.569,0.675c-0.426,0-0.88-0.048-1.362-0.145c-0.479-0.096-0.975-0.239-1.49-0.428v-1.254
			c0.495,0.277,0.979,0.487,1.453,0.627c0.474,0.141,0.941,0.211,1.399,0.211c0.695,0,1.232-0.137,1.61-0.41
			c0.378-0.273,0.567-0.663,0.567-1.169c0-0.443-0.137-0.788-0.41-1.037c-0.269-0.249-0.714-0.437-1.333-0.561l-0.741-0.144
			c-0.909-0.181-1.566-0.464-1.971-0.85c-0.406-0.386-0.609-0.922-0.609-1.61c0-0.796,0.279-1.423,0.838-1.881
			c0.563-0.458,1.336-0.687,2.321-0.687c0.422,0,0.852,0.038,1.29,0.114C-10.259-57.033-9.81-56.919-9.353-56.766"/>
		<path id="path3176" inkscape:connector-curvature="0" fill="#D6D2E7" d="M0.979-57.061h5.173v1.025H2.197v2.653h3.569v1.025H2.197
			v4.299H0.979V-57.061"/>
		<path id="path3178" inkscape:connector-curvature="0" fill="#D6D2E7" d="M9.783-57.061h1.224v5.469
			c0,0.964,0.175,1.66,0.524,2.086c0.35,0.422,0.917,0.633,1.701,0.633c0.78,0,1.344-0.211,1.694-0.633
			c0.35-0.426,0.525-1.122,0.525-2.086v-5.469h1.224v5.619c0,1.174-0.292,2.06-0.874,2.659c-0.579,0.599-1.436,0.898-2.568,0.898
			c-1.138,0-1.998-0.3-2.581-0.898c-0.579-0.599-0.868-1.485-0.868-2.659V-57.061 M13.798-59.334h1.224v1.224h-1.224V-59.334
			 M11.441-59.334h1.224v1.224h-1.224V-59.334"/>
		<path id="path3180" inkscape:connector-curvature="0" fill="#D6D2E7" d="M25.061-52.28c0.261,0.089,0.514,0.277,0.759,0.567
			c0.249,0.29,0.499,0.687,0.748,1.194l1.236,2.46h-1.308l-1.151-2.309c-0.298-0.603-0.587-1.003-0.868-1.2
			c-0.277-0.197-0.657-0.295-1.139-0.295h-1.327v3.804h-1.218v-9.001h2.75c1.029,0,1.797,0.215,2.303,0.645
			c0.506,0.43,0.759,1.079,0.759,1.948c0,0.567-0.133,1.037-0.398,1.411C25.946-52.684,25.564-52.425,25.061-52.28 M22.011-56.06
			v3.196h1.531c0.587,0,1.029-0.135,1.327-0.404c0.301-0.273,0.453-0.673,0.453-1.2c0-0.526-0.151-0.923-0.453-1.188
			c-0.297-0.269-0.74-0.404-1.327-0.404H22.011"/>
		<path id="path3182" inkscape:connector-curvature="0" fill="#D6D2E7" d="M38.486-56.06v3.383h1.531
			c0.567,0,1.005-0.147,1.314-0.44c0.31-0.293,0.465-0.712,0.465-1.254c0-0.539-0.155-0.954-0.465-1.248
			c-0.309-0.293-0.747-0.44-1.314-0.44H38.486 M37.268-57.061h2.75c1.009,0,1.771,0.229,2.285,0.688
			c0.518,0.454,0.778,1.121,0.778,2.001c0,0.889-0.259,1.559-0.778,2.014c-0.515,0.455-1.277,0.681-2.285,0.681h-1.531v3.617h-1.218
			V-57.061"/>
		<path id="path3184" inkscape:connector-curvature="0" fill="#D6D2E7" d="M50.817-52.28c0.261,0.089,0.514,0.277,0.759,0.567
			c0.249,0.29,0.499,0.687,0.748,1.194l1.236,2.46h-1.308L51.1-50.369c-0.297-0.603-0.587-1.003-0.868-1.2
			c-0.277-0.197-0.657-0.295-1.139-0.295h-1.327v3.804h-1.218v-9.001h2.749c1.029,0,1.797,0.215,2.303,0.645
			c0.507,0.43,0.759,1.079,0.759,1.948c0,0.567-0.132,1.037-0.398,1.411C51.701-52.684,51.319-52.425,50.817-52.28 M47.766-56.06
			v3.196h1.531c0.587,0,1.029-0.135,1.327-0.404c0.302-0.273,0.452-0.673,0.452-1.2c0-0.526-0.15-0.923-0.452-1.188
			c-0.297-0.269-0.739-0.404-1.327-0.404H47.766"/>
		<path id="path3186" inkscape:connector-curvature="0" fill="#D6D2E7" d="M60.615-56.235c-0.885,0-1.588,0.33-2.111,0.989
			c-0.518,0.659-0.778,1.557-0.778,2.695c0,1.134,0.259,2.03,0.778,2.689c0.523,0.659,1.226,0.989,2.111,0.989
			c0.884,0,1.583-0.33,2.098-0.989c0.518-0.659,0.778-1.555,0.778-2.689c0-1.138-0.259-2.036-0.778-2.695
			C62.199-55.906,61.499-56.235,60.615-56.235 M60.615-57.224c1.262,0,2.271,0.424,3.027,1.272c0.755,0.844,1.133,1.977,1.133,3.401
			c0,1.418-0.378,2.552-1.133,3.401c-0.756,0.844-1.765,1.266-3.027,1.266c-1.267,0-2.279-0.421-3.039-1.266
			c-0.755-0.844-1.133-1.978-1.133-3.401c0-1.423,0.378-2.556,1.133-3.401C58.336-56.8,59.349-57.224,60.615-57.224"/>
		<path id="path3188" inkscape:connector-curvature="0" fill="#D6D2E7" d="M68.508-57.061h5.173v1.025h-3.956v2.653h3.57v1.025
			h-3.57v4.299h-1.218V-57.061"/>
		<path id="path3190" inkscape:connector-curvature="0" fill="#D6D2E7" d="M77.45-57.061h1.218v9.001H77.45V-57.061"/>
		<path id="path3192" inkscape:connector-curvature="0" fill="#D6D2E7" d="M88.316-56.766v1.188
			c-0.462-0.221-0.898-0.386-1.308-0.495c-0.41-0.108-0.806-0.163-1.187-0.163c-0.664,0-1.176,0.129-1.538,0.386
			c-0.358,0.257-0.537,0.623-0.537,1.097c0,0.398,0.119,0.7,0.356,0.904c0.241,0.201,0.695,0.364,1.362,0.489l0.736,0.151
			c0.909,0.172,1.578,0.478,2.008,0.916c0.434,0.434,0.651,1.017,0.651,1.748c0,0.872-0.294,1.534-0.881,1.984
			c-0.583,0.45-1.439,0.675-2.568,0.675c-0.426,0-0.88-0.048-1.363-0.145c-0.478-0.096-0.974-0.239-1.489-0.428v-1.254
			c0.494,0.277,0.978,0.487,1.453,0.627c0.474,0.141,0.941,0.211,1.399,0.211c0.695,0,1.232-0.137,1.61-0.41
			c0.378-0.273,0.567-0.663,0.567-1.169c0-0.443-0.137-0.788-0.41-1.037c-0.269-0.249-0.714-0.437-1.333-0.561l-0.742-0.144
			c-0.908-0.181-1.565-0.464-1.971-0.85c-0.406-0.386-0.609-0.922-0.609-1.61c0-0.796,0.28-1.423,0.839-1.881
			c0.562-0.458,1.336-0.687,2.321-0.687c0.422,0,0.852,0.038,1.29,0.114C87.409-57.033,87.857-56.919,88.316-56.766"/>
	</g>
</g>
</svg>
