<?xml version="1.0" encoding="utf-8"?>
<!-- Generator: Adobe Illustrator 16.0.0, SVG Export Plug-In . SVG Version: 6.00 Build 0)  -->
<!DOCTYPE svg PUBLIC "-//W3C//DTD SVG 1.1//EN" "http://www.w3.org/Graphics/SVG/1.1/DTD/svg11.dtd">
<svg version="1.1" id="Ebene_1" xmlns="http://www.w3.org/2000/svg" xmlns:xlink="http://www.w3.org/1999/xlink" x="0px" y="0px"
	 width="150px" height="80px" viewBox="-28.5 -18 150 80" enable-background="new -28.5 -18 150 80" xml:space="preserve">
<g id="svg2385" xmlns:svg="http://www.w3.org/2000/svg">
	<g id="layer1_1_">
		<g id="g2584" transform="matrix(6.2918274,0,0,6.2918274,-1685.5171,-1336.8611)">
			<path id="path959" fill="#D6D2E7" d="M265.266,219.086c0.344,0.379,0.749,0.697,1.217,0.948c0.714,0.385,1.508,0.582,2.386,0.589
				c0.651-0.007,1.286-0.157,1.904-0.449c0.577-0.273,1.068-0.636,1.47-1.09h-0.555c-0.005,0.005-0.012,0.009-0.017,0.012
				c-0.43,0.294-0.881,0.516-1.352,0.67c-0.471,0.154-0.97,0.231-1.497,0.231c-0.673-0.009-1.269-0.174-1.787-0.496
				c-0.197-0.123-0.38-0.263-0.545-0.418h-1.223V219.086z M274.381,219.086c0.029,0.03,0.061,0.059,0.096,0.088
				c0.219,0.172,0.481,0.26,0.788,0.262c0.307-0.002,0.569-0.089,0.784-0.262c0.034-0.027,0.066-0.056,0.095-0.088H274.381z
				 M284.613,219.086c0.027,0.032,0.057,0.062,0.089,0.091c0.199,0.17,0.454,0.257,0.768,0.258c0.218,0,0.415-0.054,0.594-0.16
				c0.083-0.051,0.153-0.113,0.211-0.187h-1.662 M264.178,216.779c0.09,0.607,0.289,1.159,0.597,1.654
				c0.147,0.234,0.311,0.452,0.491,0.651h1.225c-0.267-0.25-0.491-0.541-0.672-0.876c-0.238-0.437-0.381-0.913-0.43-1.431h-1.212
				V216.779z M267.208,216.779l-0.239,0.545c-0.041,0.091-0.081,0.184-0.12,0.282c-0.039,0.096-0.059,0.197-0.062,0.304
				c0.003,0.137,0.047,0.246,0.135,0.331c0.086,0.084,0.199,0.126,0.336,0.13c0.181-0.008,0.324-0.076,0.43-0.205
				c0.106-0.128,0.191-0.268,0.25-0.42l0.423-0.967H267.208z M269.317,216.779l-0.246,0.555c-0.046,0.091-0.086,0.184-0.123,0.28
				c-0.037,0.096-0.057,0.194-0.059,0.295c0.002,0.137,0.046,0.246,0.13,0.331c0.084,0.084,0.194,0.126,0.331,0.13
				c0.181-0.008,0.324-0.075,0.432-0.199c0.108-0.124,0.194-0.263,0.26-0.415l0.437-0.977H269.317z M271.825,216.779
				c-0.091,0.175-0.197,0.337-0.319,0.488l0.336,0.289c0.238-0.224,0.442-0.483,0.614-0.775h-0.631V216.779z M279.448,219.376h0.662
				v-3.022h-0.662V219.376z M280.697,216.779c0.017,0.066,0.049,0.125,0.1,0.174c0.071,0.071,0.159,0.108,0.263,0.111
				c0.103-0.003,0.191-0.041,0.263-0.111c0.051-0.051,0.083-0.108,0.099-0.174H280.697z M272.242,219.086
				c0.027-0.03,0.054-0.061,0.079-0.093l-0.192-0.288c-0.138,0.14-0.287,0.267-0.444,0.382H272.242z M276.144,219.086
				c0.153-0.165,0.236-0.382,0.243-0.65c-0.01-0.319-0.121-0.564-0.337-0.736c-0.216-0.172-0.477-0.26-0.784-0.261
				c-0.307,0.002-0.57,0.088-0.788,0.258c-0.219,0.17-0.332,0.417-0.342,0.739c0.008,0.268,0.091,0.484,0.248,0.65H276.144z
				 M277.511,219.376v-0.969c-0.002-0.118,0.022-0.219,0.072-0.302c0.051-0.083,0.142-0.126,0.273-0.13
				c0.13,0.003,0.216,0.046,0.255,0.128c0.039,0.081,0.057,0.179,0.052,0.294v0.978h0.661v-1.161
				c0.002-0.238-0.055-0.423-0.172-0.56c-0.115-0.135-0.296-0.204-0.538-0.207c-0.13-0.002-0.243,0.02-0.341,0.066
				c-0.097,0.045-0.182,0.123-0.255,0.231h-0.01v-0.24h-0.661v1.87h0.663V219.376z M280.732,219.376h0.652v-1.869h-0.653
				L280.732,219.376z M282.632,219.376v-0.969c-0.002-0.118,0.022-0.219,0.072-0.302c0.051-0.083,0.142-0.126,0.273-0.13
				c0.121,0.003,0.203,0.042,0.242,0.119c0.04,0.075,0.057,0.166,0.055,0.276v1.007h0.661v-1.161
				c0.002-0.238-0.056-0.424-0.172-0.561c-0.115-0.135-0.295-0.204-0.538-0.207c-0.105,0.005-0.211,0.039-0.319,0.102
				c-0.108,0.064-0.201,0.128-0.275,0.196v-0.24h-0.672v1.869H282.632z M286.275,219.086c0.066-0.086,0.113-0.188,0.145-0.304
				h-0.633c-0.034,0.057-0.079,0.101-0.133,0.13c-0.054,0.029-0.116,0.044-0.184,0.044c-0.132,0-0.235-0.034-0.312-0.102
				c-0.076-0.068-0.113-0.167-0.11-0.302h1.39c0.002-0.341-0.079-0.609-0.241-0.808c-0.164-0.199-0.422-0.3-0.774-0.305
				c-0.307,0.003-0.554,0.093-0.739,0.268c-0.186,0.175-0.282,0.418-0.287,0.729c0.005,0.27,0.078,0.486,0.218,0.65H286.275z
				 M285.835,218.168h-0.768c0.022-0.096,0.067-0.172,0.138-0.226c0.071-0.054,0.157-0.081,0.255-0.081
				c0.09,0.002,0.17,0.032,0.241,0.09C285.774,218.007,285.818,218.08,285.835,218.168z M275.689,218.436
				c-0.002,0.126-0.04,0.228-0.118,0.305c-0.076,0.076-0.177,0.115-0.305,0.118c-0.126-0.002-0.229-0.04-0.309-0.118
				c-0.079-0.076-0.12-0.177-0.122-0.305c0.002-0.127,0.044-0.228,0.122-0.304c0.079-0.076,0.182-0.115,0.309-0.119
				c0.126,0.002,0.228,0.041,0.305,0.119C275.646,218.208,275.685,218.309,275.689,218.436 M265.388,216.779
				c-0.012-0.123-0.019-0.248-0.019-0.376c-0.005-0.753,0.103-1.446,0.322-2.082c0.219-0.636,0.579-1.149,1.078-1.537
				c0.499-0.388,1.168-0.589,2.005-0.599c0.634,0.003,1.206,0.137,1.718,0.4c0.511,0.263,0.92,0.634,1.222,1.114
				c0.302,0.479,0.457,1.046,0.464,1.699c-0.002,0.327-0.062,0.658-0.181,0.989c-0.049,0.138-0.106,0.268-0.172,0.395h0.631
				c0.064-0.11,0.123-0.224,0.179-0.345c0.201-0.438,0.305-0.88,0.31-1.326c-0.008-0.793-0.199-1.471-0.569-2.035
				c-0.37-0.564-0.864-0.997-1.485-1.298c-0.621-0.3-1.311-0.452-2.07-0.456c-0.916,0.008-1.726,0.218-2.43,0.628
				c-0.704,0.41-1.255,0.972-1.657,1.682c-0.402,0.712-0.606,1.524-0.613,2.437c0.003,0.246,0.022,0.482,0.056,0.712h1.21V216.779z
				 M268.362,216.779l1.082-2.467c0.056-0.115,0.105-0.235,0.15-0.359c0.044-0.123,0.067-0.25,0.071-0.38
				c-0.002-0.137-0.046-0.246-0.13-0.331c-0.085-0.084-0.194-0.126-0.331-0.13c-0.16,0.003-0.285,0.049-0.378,0.14
				c-0.091,0.091-0.167,0.207-0.226,0.349l-1.392,3.177H268.362L268.362,216.779z M270.475,216.779l0.169-0.376
				c0.056-0.115,0.105-0.234,0.15-0.358c0.044-0.123,0.068-0.25,0.071-0.38c-0.002-0.137-0.046-0.248-0.13-0.331
				c-0.084-0.084-0.194-0.126-0.331-0.13c-0.16,0.003-0.285,0.052-0.378,0.144c-0.091,0.093-0.167,0.207-0.226,0.346l-0.483,1.087
				h1.158V216.779z M281.421,216.779c0.007-0.029,0.012-0.057,0.012-0.088c-0.003-0.103-0.041-0.189-0.111-0.258
				c-0.071-0.069-0.159-0.105-0.264-0.106c-0.103,0.003-0.191,0.038-0.263,0.106c-0.071,0.069-0.108,0.154-0.112,0.258
				c0,0.03,0.005,0.061,0.012,0.088H281.421z M284.741,214.609c0.002-0.336-0.076-0.604-0.236-0.805
				c-0.16-0.201-0.413-0.304-0.761-0.309c-0.307,0.003-0.555,0.094-0.744,0.273c-0.189,0.179-0.285,0.424-0.292,0.734
				c0.007,0.322,0.111,0.567,0.312,0.736c0.201,0.167,0.459,0.251,0.773,0.253c0.218,0,0.412-0.052,0.584-0.158
				c0.172-0.106,0.288-0.269,0.346-0.483h-0.614c-0.034,0.057-0.079,0.102-0.133,0.13c-0.054,0.029-0.116,0.044-0.184,0.044
				c-0.132,0-0.235-0.036-0.312-0.105c-0.076-0.071-0.113-0.172-0.11-0.307h1.372V214.609z M280.148,212.768
				c-0.004-0.103-0.041-0.189-0.112-0.258c-0.07-0.069-0.158-0.105-0.263-0.106c-0.103,0.003-0.191,0.039-0.263,0.106
				c-0.071,0.069-0.108,0.153-0.111,0.258c0.003,0.103,0.04,0.191,0.111,0.263c0.07,0.071,0.159,0.108,0.263,0.111
				c0.103-0.003,0.19-0.04,0.263-0.111C280.108,212.959,280.145,212.871,280.148,212.768z M282.297,214.791
				c-0.011-0.219-0.083-0.362-0.22-0.432c-0.135-0.069-0.272-0.115-0.407-0.135c-0.135-0.02-0.209-0.069-0.219-0.143
				c0.003-0.047,0.029-0.079,0.076-0.098c0.047-0.019,0.093-0.027,0.135-0.027c0.062,0,0.124,0.007,0.184,0.022
				c0.061,0.015,0.116,0.035,0.17,0.064l0.221-0.422c-0.192-0.084-0.393-0.126-0.604-0.125c-0.211,0-0.4,0.056-0.569,0.167
				c-0.167,0.111-0.256,0.28-0.267,0.505c0.01,0.209,0.083,0.344,0.216,0.408c0.133,0.062,0.268,0.106,0.401,0.128
				c0.134,0.022,0.206,0.077,0.216,0.163c-0.004,0.052-0.025,0.088-0.068,0.106c-0.042,0.019-0.086,0.029-0.133,0.027
				c-0.093-0.002-0.186-0.02-0.278-0.056c-0.093-0.035-0.175-0.081-0.25-0.135l-0.24,0.471c0.115,0.067,0.237,0.12,0.364,0.155
				c0.128,0.035,0.258,0.054,0.393,0.055c0.224,0.002,0.425-0.054,0.599-0.167C282.195,215.213,282.286,215.034,282.297,214.791z
				 M279.448,215.444h0.662v-1.861h-0.662V215.444z M278.92,214.609c0.002-0.341-0.083-0.609-0.25-0.808
				c-0.169-0.199-0.427-0.3-0.776-0.305c-0.307,0.003-0.553,0.094-0.739,0.273c-0.186,0.179-0.282,0.424-0.287,0.734
				c0.007,0.322,0.108,0.567,0.307,0.736c0.197,0.167,0.454,0.251,0.768,0.253c0.218,0.002,0.416-0.05,0.599-0.155
				c0.181-0.105,0.3-0.267,0.361-0.488h-0.643c-0.034,0.057-0.078,0.101-0.133,0.13c-0.054,0.029-0.117,0.044-0.184,0.044
				c-0.132,0-0.235-0.035-0.312-0.104c-0.076-0.071-0.113-0.172-0.11-0.307h1.399V214.609z M276.389,215.444v-1.151
				c0-0.229-0.056-0.417-0.17-0.562c-0.115-0.145-0.29-0.219-0.53-0.224c-0.251,0.002-0.449,0.105-0.594,0.307h-0.01v-1.497h-0.661
				v3.127h0.661v-0.959c-0.002-0.115,0.024-0.217,0.076-0.309c0.052-0.089,0.142-0.138,0.27-0.143
				c0.13,0.005,0.213,0.054,0.25,0.147c0.037,0.091,0.052,0.194,0.047,0.304v0.959h0.661V215.444z M284.158,214.226h-0.768
				c0.022-0.096,0.068-0.17,0.14-0.221c0.071-0.051,0.157-0.076,0.255-0.076c0.09,0.002,0.169,0.029,0.242,0.084
				C284.095,214.067,284.139,214.138,284.158,214.226z M278.306,214.226h-0.768c0.022-0.096,0.067-0.17,0.138-0.221
				c0.071-0.051,0.157-0.076,0.255-0.076c0.089,0.002,0.169,0.029,0.241,0.084C278.245,214.067,278.289,214.138,278.306,214.226"/>
		</g>
	</g>
</g>
<g id="Ebene_2">
</g>
</svg>
