<?xml version="1.0" encoding="UTF-8" standalone="no"?>
<!-- Created with Inkscape (http://www.inkscape.org/) -->
<svg
   xmlns:svg="http://www.w3.org/2000/svg"
   xmlns="http://www.w3.org/2000/svg"
   version="1.0"
   width="814.96063"
   height="279.92126"
   id="svg2016">
  <defs
     id="defs2018" />
  <g
     transform="translate(-604.5277,-230.8259)"
     id="layer1">
    <g
       transform="translate(17.71653,17.63012)"
       id="g2028">
      <path
         d="M 1030.4261,398.51278 C 1030.4261,352.21535 1022.1452,341.8643 1022.1452,341.8643 C 1022.1452,341.8643 983.37583,320.40941 903.95517,320.40941 C 887.01706,320.59765 867.06776,321.72684 846.74213,324.54986 L 846.74213,251.52796 L 812.30134,251.52796 L 812.30134,468.71166 C 812.30134,468.71166 867.44415,475.48689 914.30615,475.48689 C 1000.3139,475.48689 1022.3334,457.60781 1022.3334,457.60781 C 1022.3334,457.60781 1030.4261,446.12757 1030.4261,398.51278 M 995.7971,400.01837 C 995.7971,412.81604 994.85614,425.23724 993.91511,432.76527 C 982.99943,435.77653 958.34519,440.85793 914.87078,440.85793 C 895.86251,441.0461 873.27843,439.5405 846.74213,437.28212 L 846.74213,359.36698 C 920.14042,348.45137 973.02485,360.87257 993.35048,367.27141 C 994.29151,374.79943 995.7971,387.22071 995.7971,400.01837"
         style="fill:#a71330;fill-rule:nonzero;stroke:none"
         id="path4554" />
      <path
         d="M 1269.441,398.51278 C 1269.441,352.21535 1261.1602,341.8643 1261.1602,341.8643 C 1261.1602,341.8643 1222.2026,320.40941 1142.9702,320.40941 C 1125.8439,320.59765 1105.8946,321.72684 1085.7571,324.54986 L 1085.7571,251.52796 L 1051.1282,251.52796 L 1051.1282,468.71166 C 1051.1282,468.71166 1106.271,475.48689 1153.3211,475.48689 C 1239.1407,475.48689 1261.3484,457.60781 1261.3484,457.60781 C 1261.3484,457.60781 1269.441,446.12757 1269.441,398.51278 M 1234.8121,400.01837 C 1234.8121,412.81604 1233.6829,425.23724 1232.9301,432.76527 C 1221.8263,435.77653 1197.1719,440.85793 1153.8858,440.85793 C 1134.6893,441.0461 1112.1052,439.5405 1085.7571,437.28212 L 1085.7571,359.36698 C 1159.1554,348.45137 1211.8516,360.87257 1232.3655,367.27141 C 1233.3065,374.79943 1234.8121,387.22071 1234.8121,400.01837"
         style="fill:#a71330;fill-rule:nonzero;stroke:none"
         id="path4556" />
      <path
         d="M 789.71725,321.16221 C 657.22393,321.91507 604.52773,353.15638 604.52773,353.15638 L 604.52773,473.22843 L 639.72125,473.22843 L 639.72125,375.74046 C 656.2829,370.28266 702.95673,356.73219 789.71725,355.603 L 789.71725,321.16221 z "
         style="fill:#a71330;fill-rule:nonzero;stroke:none"
         id="path4558" />
      <path
         d="M 1332.6765,230.82587 C 1361.0948,230.82587 1384.0553,253.78635 1384.0553,282.20471 C 1384.0553,310.623 1361.0948,333.58348 1332.6765,333.58348 C 1304.2582,333.58348 1281.1095,310.623 1281.1095,282.20471 C 1281.1095,253.78635 1304.2582,230.82587 1332.6765,230.82587 M 1353.3786,303.09497 L 1353.3786,251.52796 L 1301.4351,270.15984 L 1301.4351,282.9575 L 1318.5614,276.74683 L 1318.5614,315.51624 L 1353.3786,303.09497 z M 1332.6765,238.3539 C 1308.3986,238.3539 1288.6375,257.9268 1288.6375,282.20471 C 1288.6375,306.48255 1308.3986,326.05545 1332.6765,326.05545 C 1356.9544,326.05545 1376.5273,306.48255 1376.5273,282.20471 C 1376.5273,257.9268 1356.9544,238.3539 1332.6765,238.3539"
         style="fill:#a71330;fill-rule:evenodd;stroke:none"
         id="path4560" />
    </g>
  </g>
</svg>
