<?xml version="1.0" encoding="utf-8"?>
<!-- Generator: Adobe Illustrator 16.0.0, SVG Export Plug-In . SVG Version: 6.00 Build 0)  -->
<!DOCTYPE svg PUBLIC "-//W3C//DTD SVG 1.1//EN" "http://www.w3.org/Graphics/SVG/1.1/DTD/svg11.dtd">
<svg version="1.1"
	 id="svg2" xmlns:svg="http://www.w3.org/2000/svg" xmlns:inkscape="http://www.inkscape.org/namespaces/inkscape" xmlns:cc="http://creativecommons.org/ns#" xmlns:dc="http://purl.org/dc/elements/1.1/" xmlns:rdf="http://www.w3.org/1999/02/22-rdf-syntax-ns#" xmlns:sodipodi="http://sodipodi.sourceforge.net/DTD/sodipodi-0.dtd" sodipodi:docname="Fritz-alt.svg" inkscape:version="0.46" sodipodi:version="0.32" inkscape:output_extension="org.inkscape.output.svg.inkscape"
	 xmlns="http://www.w3.org/2000/svg" xmlns:xlink="http://www.w3.org/1999/xlink" x="0px" y="0px" width="180px" height="120px"
	 viewBox="422 340 180 120" enable-background="new 422 340 180 120" xml:space="preserve">
<defs>
	
	
		<inkscape:perspective  inkscape:vp_x="0 : 526.18109 : 1" inkscape:vp_y="0 : 1000 : 0" inkscape:vp_z="744.09448 : 526.18109 : 1" id="perspective60" sodipodi:type="inkscape:persp3d" inkscape:persp3d-origin="372.04724 : 350.78739 : 1">
		</inkscape:perspective>
	
		<inkscape:perspective  inkscape:vp_x="0 : 526.18109 : 1" inkscape:vp_y="0 : 1000 : 0" inkscape:vp_z="744.09448 : 526.18109 : 1" id="perspective2511" sodipodi:type="inkscape:persp3d" inkscape:persp3d-origin="372.04724 : 350.78739 : 1">
		</inkscape:perspective>
</defs>
<sodipodi:namedview  inkscape:cy="354.85127" pagecolor="#ffffff" inkscape:zoom="0.49497475" bordercolor="#666666" id="base" showgrid="false" borderopacity="1.0" inkscape:cx="557.08727" inkscape:pageshadow="2" inkscape:window-y="-8" inkscape:window-height="718" inkscape:window-width="1024" inkscape:window-x="-8" inkscape:pageopacity="0.0" inkscape:document-units="px" inkscape:current-layer="layer1">
	</sodipodi:namedview>
<g id="layer1" inkscape:label="Ebene 1" inkscape:groupmode="layer">
	<g id="g4411" transform="matrix(2.0365921,0,0,2.0365921,-213.22892,-781.43135)">
		<path id="path3819" fill="#FFFFFF" d="M330.464,587.295l-6.528,0.573l-3.365-12.82l1.598-8.631l-1.313-3.48l4.297-5.078
			l2.664,0.106c0.383-0.151-0.405-0.607,0-0.71c0.212-1.989,1.85-5.009,2.107-5.5l3.711-0.829c0.409-1.064,5.436,1.174,6.406,1.51
			c1.418,0.489,8.913,1.758,10.264,1.608c0.976,1.487,2.903-0.115,3.867,1.88c0.824-0.272,2.356,1.065,2.376,1.711
			c-0.714,0.456-2.333,0.316-3.178,0.391l-0.551,0.487c1.267-0.085,3.614-0.321,3.838,1.552c-0.082,0.05-3.778,0.119-3.923,0.171
			l0.94,1.873l3.923,0.225l2.649-4.033l3.759,1.437l4.305,0.11l3.536-1.273c0,0,1.055-2.649,1.327-3.092
			c0.305-0.499,0.776-0.662,0.776-0.662h0.88l0.831,0.831l0.164,0.879l-0.328,0.553c0.218-0.206,4.546-0.508,4.802-0.499
			l6.083-0.164l1.929,1.656v-1.601l0.994-0.553l0.612,0.443l-1.079,23.992l-7.955,3.729l-7.583-0.124l-15.912,5.346l-10.475,1.875
			l-1.419,3.613c-1.437,0.998-7.188,1.297-8.292,2.016l-0.631-0.325c-0.148,0.612-2.763-1.463-3.141-1.431
			c-0.893,0.076-3.961-2.437-3.063-4.085l-0.505-0.787C329.976,589.763,330.404,587.451,330.464,587.295"/>
		<path id="path3821" fill="#D6D2E7" d="M331.171,587.587l-5.887,0.816l-3.437-13.46l1.717-8.784l-1.334-3.145l3.261-3.865
			l3.271,0.065c0.119,0.469,0.387,0.814,0.862,0.958l0.06,0.018c0.039,0.077,0.085,0.147,0.139,0.21l0.034-0.149
			c0.49,0.182,0.807,0.419,1.011,0.683c0.145,0.75-0.074,1.522,0.409,1.868c0.032,0.415,0.137,0.747,0.582,0.882l6.175,1.938
			c0.112,0.035,0.734,0.164,1.233,0.343c-3.067,2.054-6.928-1.973-8.988-0.257c-0.953,0.791-3.247-0.561-3.812,0.347
			c-1.113,1.789-1.755,4.86-2.463,6.925c0.13,0.181,0.264,0.361,0.403,0.542l-0.074,0.219c1.273,1.766,2.963,3.662,5.245,3.475
			c0.459,0.437,1.456,0.3,2.035,0.247c0.232,0.26,0.529,0.276,0.75,0.322c0.003,1.028-0.093,3.129-0.362,3.278
			C332.016,581.981,331.619,585.211,331.171,587.587"/>
		<path id="path3823" fill="#D6D2E7" d="M390.763,562.836l1.929,3.922l0.04,9.144l-2.605,5.366l-4.988,1.216l-3.826,2.987
			l-7.369-0.719l-16.406,5.809l-3.49,2.158l-7.018-1.203c-0.065-2.202-0.225-4.814,0.307-5.943l-0.049-0.052l-0.018-0.271
			l0.028-0.621l0.264-2.071c3.405-7.345,4.516-6.737,5.369-6.227c0.146,3.501-2.337,8.704-3.008,12.26
			c0.144,0.119,0.285,0.224,0.421,0.317c-0.033,0.151-0.064,0.297-0.092,0.443c5.429,4.494,4.548-10.667,7.477-13.151
			c1.723-1.461,2.233-0.274,3.093-0.661c-0.667,2.088-3.025,6.571-1.442,9.321c0.157,0.508,0.412,0.979,0.792,1.39
			c1.649,1.787,4.644-2.302,5.299-3.581l1.946-3.822c-0.093,2.185,0.103,3.388,0.495,3.873c1.234,5.046,8.166-10.2,9.11-12.736
			l2.605-1.147c-1.184,2.856-4.495,7.705-4.467,9.026c0.018,0.801,0.17,1.318,0.418,1.615c0.715,3.369,5.484-2.064,6.613-3.095
			C388.264,570.836,388.992,570.959,390.763,562.836"/>
		<path id="path3825" fill="#D6D2E7" d="M375.355,557.757c2.917-0.577,10.78-0.609,10.78-0.609l2.175,1.923
			c-0.21,7.044-2.007,9.94-7.764,14.118c1.343-2.357,2.925-4.596,3.894-7.13l-0.423-0.519c0.032-0.081,0.063-0.161,0.094-0.242
			l-1.629-1.994c-1.952,1.305-4.057,2.416-6.304,3.039c-1.26,0.349-4.361,7.894-6.014,10.93c0.581-3.736,1.746-7.683,3.175-11.057
			c0.777-1.836,6.091-0.662,4.152-4.236c-0.078-0.257-0.206-0.547-0.393-0.875c-0.565-0.991-1.918,0.794-2.942,0.876
			C374.451,560.519,374.84,559.139,375.355,557.757"/>
		<path id="path3827" fill="#D6D2E7" d="M362.372,568.475c0.111,0.233,0.251,0.459,0.422,0.671c1.599-0.004,1.778-1.101,2.14-2.897
			c-0.39-0.469-0.754-0.771-1.083-0.934c-2.277-2.384-3.545,1.128-1.882,3.189C362.115,568.503,362.249,568.493,362.372,568.475z
			 M353.974,563.029l3.954,0.207l2.667-3.797l3.104,1.085l4.433,0.126l3.609-1.131c-0.232,0.873-0.424,1.626-0.599,1.985
			c-2.04,4.199-4.182-0.923-4.543,2.846l0.333,0.662l-0.01,0.104l0.811,1.609c0.495,0.249,1.084,0.321,1.633,0.21
			c-1.351,3.497-3.182,6.946-4.848,10.258c-0.196,0.389-1.194,2.408-1.954,3.741c0.939-2.727,2.627-7.351,1.4-9.156
			c-0.167-0.697-0.539-1.206-1.205-1.415c-1.034-0.323-2.209,1.304-2.657,2.099c-2.824-1.793-2.681-1.241-4.235,1
			c-2.975-2.685-5.316-2.206-7.059,0.521c0.367-1.394,0.673-1.948,1.342-3.529c0.263-0.619,0.534-1.522,0.809-2.202
			C351.361,567.262,353.256,564.514,353.974,563.029"/>
		<path id="path3829" fill="#231F20" d="M364.934,566.249c-2.437-2.939-3.866,0.761-2.14,2.897
			C364.393,569.142,364.573,568.045,364.934,566.249"/>
		<path id="path3831" fill="#1E1B0B" d="M336.181,567.092c0.854,0.196,1.714,0.264,2.539,0h6.989
			c-1.016,1.08-2.107,2.228-2.331,2.513c-1.104,1.41-1.581,1.055-3.321,1.14l-0.133-0.018l-0.22-0.001l-0.962,0.035
			c-0.771,0.022-1.787-0.386-2.567-0.518c-0.698-0.118-1.812-0.501-2.473-0.483c-0.177,0.005-1.66,0.102-1.817-0.04
			c-0.901,0.054-1.781,4.691-2.725,5.599l-0.002,0.328c1.284,0.552,7.167,1.576,8.566,1.515l0.85,0.74
			c-0.322,0.826-0.632,1.661-0.991,2.471c0.673,0.514-1.091,13.292-0.907,14.831c-1.432,1.573,3.799,0.317,4.022,0.275l4.568-0.845
			c0.141-5.332,1.287-12.067,1.13-17.035c0.769-0.061,0.671-2.591,0.8-2.945c0.935-2.546,2.124-5.051,3.244-7.564l1.105,0.003
			c-0.263,0.452-0.471,0.833-0.575,1.093c-0.276,0.68-0.547,1.583-0.811,2.202c-0.956,2.258-1.171,2.421-1.88,5.927
			c1.806-4.093,4.425-5.305,7.921-2.152c1.552-2.241,1.409-2.794,4.235-1c0.446-0.794,1.621-2.421,2.656-2.098
			c3.269,1.022-0.534,9.289-1.022,11.406c-0.035,0.153-0.089,0.405,0.016,0.352c0.433-0.218,2.476-4.353,2.764-4.929
			c1.754-3.486,3.689-7.121,5.058-10.806l3.05,0.004c-1.461,3.679-2.593,7.923-3.014,11.796c1.357-1.881,4.971-11.008,6.462-11.801
			l7.575,0.004c-1.217,2.646-3,5.02-4.287,7.638c3.898-2.717,6.323-4.841,7.708-7.643l2.276,0.004
			c-1.263,4.029-2.75,4.908-7.486,9.232c-1.208,1.104-6.59,7.256-6.702,2.24c-0.032-1.504,4.269-7.589,4.824-10.086l-3.292,1.448
			c-1.109,2.98-10.498,23.538-9.168,8.007l-2.383,4.675c-0.655,1.281-3.65,5.37-5.298,3.583c-3.008-3.26,1.803-10.195,1.069-11.01
			c-1.152,1.106-1.528-0.722-3.512,0.959c-2.929,2.484-2.048,17.648-7.476,13.152c0.711-3.768,3.456-9.384,2.954-12.867
			c-0.911-0.433-1.865-2.075-5.643,6.073l-0.264,2.071l-0.028,0.62l0.017,0.272l0.049,0.053c-0.79,1.677-0.053,6.634-0.368,8.646
			c-0.017,0.104-0.313,1.389-0.598,1.372c0.223,1.457-6.724,1.403-8.006,2.236l-1.097-0.19c-0.149,0.612-1.404,0.145-1.782,0.176
			c-0.893,0.077-5.191-4.552-4.293-6.2l-0.421-0.65c0.615-0.729,1.583-7.717,1.559-9.141c0.322-0.177,0.396-3.175,0.35-3.744
			c-0.036-0.461-0.654-0.155-1.066-0.615c-0.579,0.053-1.577,0.189-2.036-0.247c-2.284,0.186-3.973-1.709-5.245-3.476
			c0.663-1.941,1.271-4.77,2.267-6.589H336.181z M330.7,567.475l-0.453,0.782l1.339,0.459l3.686,0.416l7.055,0.574l1.323-1.895
			l-2.355-0.362l-4.039,0.818l-1.712-0.329l-1.451-0.456l-1.452-0.302l-1.021-0.054L330.7,567.475"/>
		<path id="path3833" fill="#1E1B0B" d="M326.602,567.15c0.064-0.117,0.129-0.228,0.196-0.335c0.565-0.908,2.86,0.445,3.811-0.348
			c1.337-1.112,3.429,0.19,5.573,0.683H326.602z M338.72,567.15c0.378-0.121,0.747-0.311,1.103-0.59
			c0.572-0.447-1.571-0.872-1.79-0.938l-6.175-1.938c-1.364-0.416,0.476-2.688-2.234-3.512c-2.359-0.718,0.393-6.377,1.124-7.775
			l3.711-0.831c0.409-1.062,5.436,1.176,6.406,1.511c1.418,0.489,9.049,2.091,10.4,1.94c0.976,1.486,2.903-0.116,3.867,1.881
			l-0.047,0.032l0.232-0.032c0.478,0.01,1.261,0.175,1.283,0.822c-0.715,0.454-1.56,0.872-2.404,0.948l-0.551,0.488
			c1.268-0.086,2.321-0.182,3.118,0.934c-0.519,0.312-2.63,0.709-2.745,0.427l-0.512,0.116c0.339,0.211,0.487,0.726,0.016,0.776
			c0.065,0.053,0.491,0.489,0.728,0.727c0.157,0.547-1.686,3.285-2.706,5.02l-1.105-0.005c0.754-1.694,1.475-3.389,2.064-5.104
			c-1.024-0.289-0.398-0.748-0.385-0.779l0.101-1.233c-1.546,1.548-5.793,1.928-7.501,2.032c-0.038-0.704-1.576,0.067-2.356-1.637
			c1.896-2.13,4.354-3.658,7.176-3.822c-1.334-0.225-3.157-0.293-4.414-0.671c-1.537-0.461-6.991-3.102-9.044-2.952
			c-0.565,1.133-1.355,2.434-1.341,3.731c-0.455,0.696-1.188,1.882-1.217,2.721c-0.078,2.311,14.169,3.38,14.083,5.599
			c-0.004,0.089-0.916,1.07-1.896,2.111L338.72,567.15z M369.907,567.15c0.058-0.165,0.117-0.327,0.175-0.487
			c-0.701,0.404-1.62,0.415-2.339,0.054l-0.812-1.609c0.361-3.769,2.503,1.355,4.544-2.846c0.704-1.451,1.713-9.31,4.361-5.705
			c-0.845,1.995-1.418,3.938-1.803,6.08c1.036,0.651,2.743-1.919,3.396-0.772c2.116,3.713-3.301,2.494-4.087,4.352
			c-0.13,0.306-0.258,0.619-0.383,0.934H369.907z M376.405,567.15c0.037-0.024,0.071-0.037,0.105-0.047
			c2.247-0.623,4.353-1.734,6.305-3.04l1.627,1.994c-0.141,0.37-0.296,0.736-0.461,1.095L376.405,567.15z M387.401,567.15
			c1.263-2.559,1.662-5.675,1.526-10.316l0.948-0.52c1.396,0.756,1.398,4.131,1.111,5.488c-0.488,2.303-0.886,4.004-1.309,5.352
			L387.401,567.15z M349.539,556.608c0.347,0.06,0.721,0.118,1.114,0.169l-0.641-0.201L349.539,556.608z M350.653,556.777
			c0.872,0.273,2.341,0.726,2.485,0.717c0.69-0.046,1.05-0.193,1.343-0.33c-0.075-0.056,0.001-0.224,0.001-0.224
			C353.123,557.03,351.801,556.93,350.653,556.777z M354.48,557.163c0.061,0.045,0.223,0.017,0.606-0.235
			C354.856,556.976,354.685,557.067,354.48,557.163z M347.102,558.396c-0.98,0.064,0.302,0.224-1.116,0.318
			c-0.188,0.011-0.604,0.505-0.778,0.452c-0.208,0.439-0.615,0.801-1.02,1.099l0.425,0.591c1.263,0.116,1.292,0.315,1.368,0.306
			l1.961-0.264c-0.598-0.119-1.126-0.45-1.109-1.449C346.847,558.595,347.378,558.378,347.102,558.396z M351.958,557.762
			c-0.359,0.669-0.79,0.052-3.827,0.251l0.048,0.203c0.665-0.118,0.523,0.192,0.523,0.192c0.454-0.03,0.605,0.517,0.597,1.013
			c-0.013,0.645,0.135,0.3-0.222,0.866c0.013,0,2.863-1.655,2.863-1.655L351.958,557.762z M331.879,561.038l0.696,1.758l2.121,1.077
			l0.74,0.133l0.691-0.275l4.2,1.683l4.534,0.17l1.208-1.016l-4.394-0.743l-3.656-0.875l-2.949-1.029L331.879,561.038"/>
		<path id="path3835" fill="#D6D2E7" d="M334.452,552.556c-0.316,1.267-1.47,4.018-1.666,4.075l-0.675,3.007
			c-0.162-0.022-2.142-0.725-2.163-0.734c-0.644-1.787,0.149-1.858,0.152-2.526l1.403-2.726c0,0,0.775-0.278,1.635-0.34
			C333.313,553.301,333.796,552.936,334.452,552.556z M352.709,562.011c-0.126,0.38-1.538,3.537-2.218,4.732
			c-0.002,0.035-3.089,7.914-3.09,7.936c-0.049,2.882-0.8,2.945-0.8,2.945c0,0.012,0.042,1.332-0.047,2.802
			c-0.03,0.583-0.339,1.13-0.343,1.353c-0.037,2.264-0.572,2.336-0.572,2.369c-0.174,0.798,0.418,1.139,0.288,1.893
			c-0.27,1.562-0.459,8.624-0.459,8.624l-4.568,0.846c-0.858-0.045-3.396,0.599-3.396,0.599c-1.42,0.018-0.628-0.854-0.626-0.876
			c0,0,0.6-0.69,0.705-2.473l-0.232-2.068c-0.11-0.638,0.032-2.919,0.036-3.207c0.061-1.781,0.694-4.885,0.694-4.885l0.021-1.772
			c0.003-0.321,0.022-0.177-0.316-0.432c0.208-0.46,0.991-2.471,0.991-2.471c0.004-0.365-0.547-0.753-0.849-0.74l-1.071,0.042
			c-0.785,0.032-5.586-1.311-6.316-1.279c0,0-0.665-0.049-1.179-0.279l0.002-0.328c1.112-1.055,1.745-5.551,2.725-5.6
			c0.335-0.017,0.114,0.38,1.816,0.294c0.097,0.05,0.326,0.376,0.679,0.546l1.795-0.315c0.697,0.158,2.456,0.965,2.703,0.954
			c1.399-0.068,1.05-0.445,1.179-0.452l1.508-0.074c0.839-0.042,1.025-0.024,1.814-1.066c0,0,1.855-2.245,2.291-2.589
			c0.538-0.422,1.93-1.61,1.937-2.038c0.03-1.727-5.177-2.25-5.177-2.25c-0.975,0.058-1.53-0.464-2.265-0.418
			c-0.282,0.017-1.835-0.443-1.835-0.443l-0.13-0.065c-2.203-1.126-4.681-1.609-4.674-2.425c0.007-0.868,1.217-2.721,1.217-2.721
			l0.005-0.55c0.005-0.506,1.398-2.532,1.497-2.539c1.709-0.123,2.406,0.475,4.287,0.472l3.85,1.309c0,0,0.616,0.539,0.747,0.529
			c0.336-0.022,1.632,0.187,1.88,0.259c0.717-0.048,3.875,0.947,7.321,0.753l0.084,0.247c-0.282,0.128-0.636,0.255-1.273,0.297
			c-0.206,0.014-3.179-0.746-3.179-0.746c-0.434,0.029-0.544-0.13-1.141-0.09c-3.29,0.222-6.44,2.777-6.44,2.843
			c-0.005,0.277,0.584,2.229,1.701,2.16c0.595-0.036,0.636,0.832,0.636,0.832c1.558-0.094,2.539-0.578,3.578-0.641
			c0.746-0.045,0.761-0.181,1.194-0.207c0.433-0.026,2.436-1.286,2.735-1.609c0.128,0.126-0.226,1.004-0.101,1.233
			c-0.06,0.058-0.105,0.092-0.141,0.108C352.199,561.85,352.456,561.833,352.709,562.011z M334.823,578.103
			c1.932,0.643,1.609-0.239,1.591,1.484l-0.011,1.104c-0.018,1.722-0.579,4.432-0.579,4.432l-0.007,0.662
			c-0.017,1.633-0.575,4.359-0.579,4.755c-0.002,0.232,0.311,0.765,0.311,0.765c0,0.089-0.762,4.312-0.784,4.422
			c-0.498-1.061-2.201-2.902-2.196-3.483l0.01-1.318c0.002-0.177,0.323-0.479,0.336-2.094c0.001-0.021,0.433-0.78,0.436-1.22
			c0.002-0.065,0.023-1.287,0.017-1.868c-0.015-0.714,0.555-2.545,0.555-2.545l0.005-0.551c0.009-1.155,0.447-2.094,0.448-2.325
			l0.009-0.99C334.393,578.373,334.515,578.973,334.823,578.103z M327.105,568.278l1.111-0.004c0.171,0.264,0.894,0.409,1.99,1.095
			l-0.589,1.505c-0.207,0.527-0.758,0.812-0.763,1.784c0,0-0.936,2.311-1.088,2.559c0,0-1.806-1.14-1.805-1.552
			c0.001-0.338-0.398-0.895-0.119-0.974C325.845,571.887,326.514,570.681,327.105,568.278"/>
		<path id="path3837" fill="#231F20" d="M386.991,574.877c-0.913,0-1.655,0.742-1.655,1.655c0,0.914,0.741,1.655,1.655,1.655
			c0.914,0,1.655-0.741,1.655-1.655C388.646,575.618,387.905,574.877,386.991,574.877z M385.765,576.532
			c0-0.674,0.552-1.226,1.226-1.226c0.675,0,1.226,0.551,1.226,1.226c0,0.675-0.551,1.226-1.226,1.226
			C386.317,577.757,385.765,577.207,385.765,576.532z M386.351,577.34h0.573v-0.551h0.061l0.474,0.607l0.351-0.177l-0.445-0.531
			c0.179-0.099,0.279-0.266,0.279-0.462c0.006-0.334-0.324-0.557-0.658-0.557h-0.634v0.34h0.172v0.991h-0.172V577.34z
			 M386.924,576.415v-0.373h0.061c0.19,0,0.252,0.066,0.252,0.183c0,0.124-0.128,0.19-0.252,0.19H386.924"/>
		<path id="path3839" fill="#FFFFFF" d="M387.34,587.201l1.57,0.813c0.152,1.502-4.726,1.42-5.698,2.507
			c-1.577,0.278-3.968,1.189-6.066,1.5c-1.538,2.63-12.168,2.463-13.206,4.154c-0.777,0.112-1.562,0.237-2.213,0.758
			c-0.432-0.102-0.85-0.378-1.163-0.701c-0.381,0.426-0.987,0.744-1.547,0.663c-0.44,0.417-7.844,2.448-8.912,2.445
			c-0.74,1.348-9.777,5.195-12.632,3.941c-0.807,0.993-3.932,1.118-5.109,1.285c-0.99,0.139-1.123,0.859-1.769,0.947l-1.076-0.963
			l1.43-1.461l3.057-0.439l0.842-0.822c3.06-0.441,5.002-2.597,7.97-2.284c0.625-1.082,4.333-1.479,5.369-1.497
			c1.863-2.906,14.769-4.321,15.093-4.107c3.458-2.018,8.299-1.537,12.23-3.303l0.847,0.316
			C376.87,589.696,385.941,588.36,387.34,587.201"/>
		<path id="path3841" fill="#231F20" d="M387.34,588.236l1.57,0.813c0.152,1.502-4.726,1.42-5.698,2.507
			c-1.577,0.279-3.968,1.189-6.066,1.499c-1.538,2.631-12.168,2.464-13.206,4.154c-0.777,0.112-1.562,0.238-2.213,0.76
			c-0.432-0.103-0.85-0.379-1.163-0.702c-0.381,0.426-0.987,0.744-1.547,0.66c-0.44,0.419-7.844,2.45-8.912,2.448
			c-0.74,1.348-9.777,5.195-12.632,3.94c-0.807,0.993-3.932,1.119-5.109,1.285c-0.99,0.14-1.123,0.86-1.769,0.948l-1.076-0.964
			l1.43-1.46l3.057-0.439l0.842-0.822c3.06-0.441,5.002-2.596,7.97-2.285c0.625-1.081,4.333-1.478,5.369-1.496
			c1.863-2.905,14.769-4.322,15.093-4.107c3.458-2.017,8.299-1.536,12.23-3.302l0.847,0.315
			C376.87,590.73,385.941,589.394,387.34,588.236"/>
	</g>
</g>
</svg>
