<?xml version="1.0" encoding="utf-8"?>
<!-- Generator: Adobe Illustrator 16.0.0, SVG Export Plug-In . SVG Version: 6.00 Build 0)  -->
<!DOCTYPE svg PUBLIC "-//W3C//DTD SVG 1.1//EN" "http://www.w3.org/Graphics/SVG/1.1/DTD/svg11.dtd">
<svg version="1.1" id="Ebene_1" xmlns="http://www.w3.org/2000/svg" xmlns:xlink="http://www.w3.org/1999/xlink" x="0px" y="0px"
	 width="150px" height="80px" viewBox="170.5 85.5 150 80" enable-background="new 170.5 85.5 150 80" xml:space="preserve">
<g transform="matrix(.1 0 0 -.1 -175.7435 435.1935)">
	<g>
		<path fill="#D6D2E7" d="M4250.872,2968.214c-49.785,0-73.979,23.271-73.979,71.162v153.696h-41.035v51.812h41.035v68.198
			l65.874,9.18v-77.378h70.146l-4.268-51.812h-65.879V3048.37c0-16.943,8.77-25.527,26.094-25.527c9.16,0,20.898,1.855,33.164,5.244
			l7.48-49.688C4294.349,2972.286,4267.22,2968.214,4250.872,2968.214"/>
		<path fill="#D6D2E7" d="M4428.089,3135.646c27.129,0,34.756,7.632,34.756,26.284v17.388c0,17.803-7.627,21.621-34.336,21.621
			c-18.652,0-37.305-2.119-58.506-5.938l-6.357,47.91c24.16,5.088,45.361,7.632,70.371,7.632c70.801,0,89.883-21.201,89.883-63.599
			v-19.927c0-25.01-8.477-44.092-28.398-56.387c23.74-10.596,33.486-25.435,33.486-52.153v-21.621
			c0-41.543-19.502-68.682-96.66-68.682c-25.869,0-47.49,2.119-69.531,9.336l6.357,47.061c20.771-3.818,36.465-5.518,61.055-5.518
			c29.678,0,37.734,5.928,37.734,22.471v19.512c0,15.684-9.756,22.461-30.957,22.461h-55.957v52.148H4428.089"/>
		<path fill="#D6D2E7" d="M4805.188,2973.322h-65.859v189.771c0,15.884-7.393,23.276-23.291,23.276
			c-16.26,0-45.879-9.541-72.012-23.198l-0.732-0.381v-189.468h-65.859v271.045h49.902l6.465-22.07l0.449-1.548l1.445,0.708
			c35.254,17.334,78.047,28.53,109.023,28.53c40.684,0,60.469-26.035,60.469-79.59V2973.322"/>
	</g>
	<g>
		<path fill="#D6D2E7" d="M4088.357,2946.798h-309.541c-76.226,0-138.237,62.051-138.237,138.32v171.279
			c0,76.27,62.012,138.325,138.237,138.325h171.177c76.226,0,138.242-62.056,138.242-138.325l0.112-282.656L4088.357,2946.798"/>
		<g>
			<path fill="#FFFFFF" d="M3667.054,3256.842c0,61.597,49.937,111.533,111.538,111.533h171.528c8.438,0,16.655-0.933,24.565-2.71
				c-3.887-87.251-66.055-134.624-94.058-144.414c-65.205,29.043-146.289,40.718-213.574,30.815V3256.842"/>
			<path fill="#FFFFFF" d="M3865.34,2973.771h-86.748c-61.602,0-111.538,49.941-111.538,111.543v119.482
				c57.861-7.832,115.708-33.472,148.579-65.684C3811.727,3083.146,3819.764,3039.611,3865.34,2973.771"/>
			<path fill="#FFFFFF" d="M4014.09,3348.219c28.765-20.176,47.563-53.579,47.563-91.377l0.122-283.071h-134.253
				c-22.7,64.023-18.408,113.096-14.438,146.338c6.211,2.036,11.895,4.937,17.451,9.17
				C3992.586,3172.926,4015.94,3262.228,4014.09,3348.219"/>
		</g>
	</g>
	<g>
		<path fill="#D6D2E7" d="M3756.487,2837.755l4.263,15.469l6.094,20.957h-6.577v11.328h27.29v-11.328l-5.361-0.117l-14.863-48.369
			h-21.929l-6.094,15.713l-5.234,14.014h-0.61l-4.751-14.014l-4.995-15.713h-21.929l-14.253,47.393h-6.338v12.422h18.882
			l8.652-30.576l4.751-17.295h0.732l4.751,15.234l6.211,18.75l-0.977,2.441h-8.525v11.445h32.773v-11.445h-6.094l8.042-21.562
			l5.601-14.746H3756.487"/>
		<path fill="#D6D2E7" d="M3809.944,2862.003h22.417c-0.127,6.826-2.314,13.037-10.601,13.037
			C3813.719,2875.04,3810.311,2868.458,3809.944,2862.003z M3847.952,2857.736v-6.094H3809.7
			c-0.122-9.98,3.657-14.863,14.863-14.863c6.333,0,12.183,1.348,18.394,3.779l3.657-10.225c-7.798-4.15-16.689-5.859-24.731-5.859
			c-23.755,0-29.238,15.117-29.238,30.947c0,13.154,5.972,31.436,29.116,31.436S3847.952,2869.669,3847.952,2857.736"/>
		<path fill="#D6D2E7" d="M3919.461,2836.906h8.042v-11.211h-33.013v11.211h7.915v64.326h-8.525v11.328h25.581V2836.906"/>
		<path fill="#D6D2E7" d="M3964.476,2874.552c-10.474,0-13.154-9.629-13.154-19.131c0-10.225,2.07-18.877,12.788-18.877
			c10.234,0,12.549,9.258,12.549,18.877C3976.658,2864.679,3974.588,2874.552,3964.476,2874.552L3964.476,2874.552z
			 M3963.504,2824.601c-21.201,0-29.604,13.76-29.604,30.82c0,16.807,9.136,31.309,30.337,31.309
			c21.562,0,29.844-14.502,29.844-31.182C3994.08,2838.976,3985.555,2824.601,3963.504,2824.601"/>
		<path fill="#D6D2E7" d="M4034.598,2838.849c1.338,4.629,4.629,13.652,5.85,18.164c1.582,4.502,4.263,12.422,5.723,17.051h-4.751
			v11.445h26.558v-11.445h-5.356c-3.657-10.84-14.497-37.52-18.276-48.369h-20.83c-3.657,10.723-14.014,36.553-17.544,47.393h-6.211
			v12.422h19.004l8.77-26.426c1.582-5,4.995-15.117,6.577-20.234H4034.598"/>
		<path fill="#D6D2E7" d="M4091.004,2862.003h22.412c-0.122,6.826-2.314,13.037-10.596,13.037
			C4094.778,2875.04,4091.37,2868.458,4091.004,2862.003z M4129.012,2857.736v-6.094h-38.252
			c-0.122-9.98,3.652-14.863,14.863-14.863c6.333,0,12.183,1.348,18.394,3.779l3.657-10.225c-7.798-4.15-16.689-5.859-24.731-5.859
			c-23.755,0-29.238,15.117-29.238,30.947c0,13.154,5.972,31.436,29.116,31.436S4129.012,2869.669,4129.012,2857.736"/>
		<path fill="#D6D2E7" d="M4195.159,2901.954v-16.445h17.295v-11.328h-17.412v-26.924c0-6.699,1.338-9.502,8.154-9.502
			c2.441,0,6.221,0.488,10.488,1.465l2.188-11.094c-5.117-2.188-11.934-3.398-17.051-3.398c-16.938,0-20.591,8.154-20.591,17.656
			v31.797h-8.408v9.385l9.502,2.803l4.263,14.492L4195.159,2901.954"/>
		<path fill="#D6D2E7" d="M4238.782,2862.003h22.422c-0.127,6.826-2.314,13.037-10.605,13.037
			C4242.562,2875.04,4239.153,2868.458,4238.782,2862.003z M4276.79,2857.736v-6.094h-38.242
			c-0.137-9.98,3.652-14.863,14.863-14.863c6.328,0,12.168,1.348,18.398,3.779l3.652-10.225c-7.803-4.15-16.699-5.859-24.736-5.859
			c-23.76,0-29.238,15.117-29.238,30.947c0,13.154,5.967,31.436,29.111,31.436S4276.79,2869.669,4276.79,2857.736"/>
		<path fill="#D6D2E7" d="M4334.769,2883.683v-18.027h-11.455v8.037c-2.07,0.371-4.014,0.605-5.723,0.605
			c-10.234,0-14.736-6.816-14.736-18.877c0-13.408,5.596-18.516,14.863-18.516c5.723,0,11.572,1.221,16.572,3.037l3.164-10.713
			c-5.488-2.803-14.258-4.629-22.422-4.629c-23.145,0-29.238,13.76-29.238,30.332c0,13.896,5.234,31.797,30.098,31.797
			C4322.474,2886.73,4329.29,2885.763,4334.769,2883.683"/>
		<path fill="#D6D2E7" d="M4348.841,2825.695v75.898h-8.047v11.201h24.98v-32.764c6.582,4.385,13.887,6.826,19.98,6.826
			c16.562,0,19.238-11.699,19.238-20.586v-29.004h8.535v-9.98c-4.023-1.709-9.746-2.559-13.525-2.559
			c-11.084,0-11.943,7.793-11.943,12.051v26.191c0,7.559-1.943,10.605-8.77,10.605c-4.141,0-9.619-2.188-13.516-4.746v-43.135
			H4348.841"/>
		<path fill="#D6D2E7" d="M4480.413,2866.271v-29.004h8.525v-9.98c-4.023-1.709-9.629-2.559-13.525-2.559
			c-12.295,0-11.934,10.596-11.934,12.783v25.459c0,7.559-1.943,10.605-8.779,10.605c-4.141,0-9.619-2.188-13.398-4.746v-43.135
			h-17.051v48.486h-8.047v11.211h24.863v-5.234c0.234,0,0.361-0.127,0.605-0.127c6.582,4.385,13.516,6.826,19.609,6.826
			C4477.854,2886.857,4480.413,2875.157,4480.413,2866.271"/>
		<path fill="#D6D2E7" d="M4525.472,2874.552c-10.479,0-13.154-9.629-13.154-19.131c0-10.225,2.07-18.877,12.793-18.877
			c10.234,0,12.539,9.258,12.539,18.877C4537.649,2864.679,4535.579,2874.552,4525.472,2874.552z M4524.495,2824.601
			c-21.201,0-29.6,13.76-29.6,30.82c0,16.807,9.131,31.309,30.332,31.309c21.562,0,29.844-14.502,29.844-31.182
			C4555.071,2838.976,4546.546,2824.601,4524.495,2824.601"/>
		<path fill="#D6D2E7" d="M4586.907,2836.906h8.047v-11.211h-33.027v11.211h7.93v64.326h-8.535v11.328h25.586V2836.906"/>
		<path fill="#D6D2E7" d="M4631.927,2874.552c-10.488,0-13.164-9.629-13.164-19.131c0-10.225,2.07-18.877,12.793-18.877
			c10.234,0,12.539,9.258,12.539,18.877C4644.095,2864.679,4642.024,2874.552,4631.927,2874.552L4631.927,2874.552z
			 M4630.95,2824.601c-21.201,0-29.609,13.76-29.609,30.82c0,16.807,9.141,31.309,30.332,31.309
			c21.562,0,29.844-14.502,29.844-31.182C4661.517,2838.976,4652.991,2824.601,4630.95,2824.601"/>
		<path fill="#D6D2E7" d="M4698.743,2875.529c-6.953,0-10.605-4.268-10.605-10.234c0-6.094,3.535-9.746,9.873-9.746
			c6.572,0,11.572,3.281,11.572,9.863C4709.583,2869.806,4706.907,2875.529,4698.743,2875.529z M4690.696,2826.915
			c-2.793-1.094-5.352-4.629-5.352-7.793c0-4.268,2.793-8.164,13.516-8.164c9.258,0,14.619,3.408,14.619,8.281
			c0,3.896-2.803,7.676-10.352,7.676H4690.696L4690.696,2826.915z M4723.099,2876.74c2.207-2.803,3.535-7.676,3.535-11.445
			c0-13.652-12.178-20.713-27.402-20.957h-6.953c-4.98,0-7.539-0.977-7.539-3.906c0-2.07,1.699-3.281,4.863-3.281h17.051
			c14.863,0,24.375-5.361,24.375-17.539c0-10.85-9.512-20.469-34.6-20.469c-21.689,0-27.783,7.676-27.783,15.957
			c0,6.582,3.652,11.699,7.793,14.004c-4.492,1.104-6.934,4.512-6.934,9.141c0,6.094,4.99,9.258,10.107,10.84
			c-4.629,2.07-8.525,7.188-8.525,15.596c0,15.84,13.652,22.178,27.412,22.178c4.629,0,9.248-0.605,12.549-1.465h21.191v-8.281
			h-8.652L4723.099,2876.74"/>
		<path fill="#D6D2E7" d="M4784.202,2874.064h-6.582v11.328h28.506v-11.328h-5.723l-22.051-61.895
			c-2.93-8.164-7.305-12.656-18.027-12.656c-1.094,0-8.281,0-15.84,2.422l2.314,12.188c3.408-0.605,6.338-1.094,9.131-1.094
			c5.371,0,7.197,1.582,8.418,4.629l3.652,9.375h-7.676c-5.234,15.352-9.746,30.82-14.98,46.299h-6.582v12.061h18.887
			c2.422-7.793,12.793-41.426,14.492-47.393h0.488C4774.095,2842.755,4782.249,2868.214,4784.202,2874.064"/>
	</g>
</g>
</svg>
