<?xml version="1.0" encoding="utf-8"?>
<!-- Generator: Adobe Illustrator 16.0.0, SVG Export Plug-In . SVG Version: 6.00 Build 0)  -->
<!DOCTYPE svg PUBLIC "-//W3C//DTD SVG 1.1//EN" "http://www.w3.org/Graphics/SVG/1.1/DTD/svg11.dtd">
<svg version="1.1" id="Ebene_1" xmlns="http://www.w3.org/2000/svg" xmlns:xlink="http://www.w3.org/1999/xlink" x="0px" y="0px"
	 width="250px" height="67.242px" viewBox="-33.806 -5.242 250 67.242" enable-background="new -33.806 -5.242 250 67.242"
	 xml:space="preserve">
<g id="svg2385" xmlns:svg="http://www.w3.org/2000/svg">
	<g id="layer1" transform="translate(-499.375, -640.625)">
		<g id="g2413" transform="matrix(0.941176, 0, 0, 0.941176, 47.0915, 62.6671)">
			<rect id="rect2411" x="442.508" y="608.511" fill="#D6D2E7" width="271.469" height="71.444"/>
			<path id="path3" fill="#FFFFFF" d="M460.544,624.164c-0.213,0.018-0.695,0.302-0.866,0.364c-0.315,0.295,0.21,0.861,0.565,0.605
				l0.284-0.605C460.701,624.232,460.674,624.152,460.544,624.164z M458.989,625.376c-0.669,0-1.609,0.493-2.179,1.553
				c-0.119,0.377,0.001,0.375,0.06,0.829c0.119,0.391,0.24,0.884,0.122,1.393c0.118,0.55,0.759,0.543,1.252,0.543
				c0.353,0,1.301-1.535,1.634-1.535c0.257-0.196,0.362-1.23,0.263-1.834C460.142,625.871,459.484,625.376,458.989,625.376z
				 M456.224,625.598c-0.066,0.018-0.154,0.045-0.281,0.102c-0.374,0.075-0.55,0.165-0.686,0.424
				c-0.177,0.295-0.01,0.64,0.403,0.442c0.276-0.136,0.385-0.445,0.465-0.625C456.376,625.646,456.425,625.545,456.224,625.598z
				 M463.512,626.425c-0.054,0.025-0.114,0.083-0.201,0.141c-0.119,0.077-0.488,0.365-0.567,0.445
				c-0.117,0.393,0.352,0.761,0.647,0.403c0.099-0.094,0.182-0.488,0.182-0.583C463.704,626.444,463.675,626.349,463.512,626.425z
				 M454.105,627.011c-0.276,0-1.401,0.495-1.694,0.949c-0.376,0.669-0.268,2.307,0.403,2.583c0.453,0.197,1.419-0.001,1.694-0.182
				c0.474-0.176,1.336-1.15,1.435-1.917c0.1-0.494-0.206-0.936-0.384-1.251c0,0-0.004,0-0.182,0
				C454.884,627.193,454.617,627.186,454.105,627.011z M461.937,627.879c-0.356,0-0.843,0.182-1.515,0.929
				c-0.375,0.413-0.548,1.061-0.667,1.554c-0.077,1.463,1.237,1.719,2.282,1.151c0.493-0.315,0.955-0.962,1.151-1.433
				c0.198-0.376,0.2-1.44,0.122-1.816c0-0.095-0.125-0.102-0.224-0.102C462.811,628.161,462.45,628.06,461.937,627.879z
				 M486.082,630.261c-1.73,0-2.403,0.631-2.403,2.544v0.766c0,1.864,0.673,2.544,2.403,2.544h1.231
				c1.727,0,2.403-0.682,2.403-2.544v-0.766c0-1.912-0.675-2.544-2.403-2.544H486.082z M631.503,630.261
				c-1.727,0-2.402,0.631-2.402,2.544v0.766c0,1.864,0.674,2.544,2.402,2.544h1.231c1.725,0,2.402-0.682,2.402-2.544v-0.766
				c0-1.912-0.677-2.544-2.402-2.544H631.503z M478.228,630.301l-6.54,0.544c-0.456,0.045-0.686,0.359-0.686,0.767v1.636
				c0,0.365,0.17,0.695,0.625,0.788l2.282,0.484v4.683c-0.774-0.68-1.961-1.231-3.553-1.231c-3.997,0-6.681,3.696-6.681,12.373
				c0,9.138,1.997,12.173,5.633,12.173c2.179,0,3.824-0.866,5.369-3.774l0.323,2.825c0.045,0.498,0.403,0.73,0.95,0.687l5.449-0.503
				c0.454-0.047,0.686-0.381,0.686-0.788v-1.636c0-0.362-0.172-0.679-0.627-0.769l-2.282-0.502v-26.989
				C479.176,630.475,478.773,630.255,478.228,630.301z M457.356,630.442c-0.493,0.016-1.233,0.302-1.233,0.302
				s-1.128,0.217-1.878,0.768c0,0-1.267,0.087-1.938,0.384c-0.866,0.176-1.817,1.511-1.817,2.362c0,0.588,0.583,1.357,1.231,1.553
				c0.415,0.181,0.594,0,0.887,0c0,0,0.002-0.021,0,0.063c0.196,0.195,0.734,1.195,1.031,1.453c0.394,0.297,1.355,0.463,1.433,0.463
				c0,0,0.003,0,0.1,0c0,0.198,0.381,1.087,1.132,1.637c0.788,0.573,2.11-0.173,2.583-0.648c0.591-0.886,0.79-1.348,0.868-2.017
				c-0.277-0.95-0.775-1.659-0.284-3.373c0.198-1.025-0.493-1.317-0.888-1.493c-0.276-0.216-0.26-1.278-1.03-1.454
				C457.501,630.433,457.425,630.439,457.356,630.442z M463.936,631.107c-0.052,0.012-0.127,0.085-0.201,0.224
				c-0.179,0.277-0.347,0.345-0.545,0.486c-0.375,0.352,0.108,0.843,0.465,0.564c0.276-0.296,0.423-0.551,0.423-0.988
				C464.077,631.232,464.024,631.093,463.936,631.107z M521.649,631.531c-0.078,0.003-0.171,0.016-0.263,0.041l-2.179,0.505
				c-0.5,0.087-0.772,0.413-0.909,1.049l-1.131,5.126h-1.897c-0.455,0-0.786,0.269-0.786,0.768v2.362c0,0.5,0.333,0.789,0.786,0.789
				h1.897v14.533c0,4.223,1.775,5.811,4.504,5.811c1.952,0,3.585-0.678,4.723-1.815c0.182-0.183,0.55-0.541,0.686-0.767
				c0.227-0.366,0.232-0.726-0.04-1.089l-0.87-1.233c-0.27-0.413-0.725-0.453-1.088-0.181c-0.91,0.68-1.505,0.907-1.96,0.907
				c-0.453,0-0.686-0.236-0.686-1.921v-14.248h3.877c0.455,0,0.766-0.288,0.766-0.788v-2.363c0-0.5-0.313-0.767-0.766-0.767h-3.877
				v-5.915C522.436,631.94,522.196,631.511,521.649,631.531z M644.342,631.531c-0.079,0.003-0.173,0.016-0.264,0.041l-2.18,0.505
				c-0.5,0.087-0.773,0.413-0.909,1.049l-1.13,5.126h-1.897c-0.453,0-0.788,0.269-0.788,0.768v2.362c0,0.5,0.334,0.789,0.788,0.789
				h1.898v14.533c0,4.223,1.775,5.811,4.501,5.811c1.957,0,3.59-0.678,4.724-1.815c0.182-0.183,0.552-0.541,0.686-0.767
				c0.229-0.366,0.231-0.726-0.04-1.089l-0.866-1.233c-0.273-0.413-0.726-0.453-1.09-0.181c-0.907,0.68-1.505,0.907-1.958,0.907
				c-0.457,0-0.688-0.236-0.688-1.921v-14.248h3.514c0.453,0,0.766-0.288,0.766-0.788v-2.363c0-0.5-0.312-0.767-0.766-0.767h-3.514
				v-5.915C645.129,631.94,644.891,631.511,644.342,631.531z M462.037,632.462c-0.14,0.006-0.296,0.04-0.463,0.1
				c-0.573,0.196-0.573,0.959-0.849,1.313c-0.412,0.511-0.664,0.783-0.664,1.372c0,0.436,0.465,1.515,1.291,1.332
				c0.767-0.178,0.776-0.591,1.19-0.888c0.377-0.257,0.653-0.744,0.849-1.433C463.321,633.514,463.013,632.406,462.037,632.462z
				 M501.079,637.749c-4.863,0-7.914,2.874-7.914,12.555c0,10.725,3.651,12.213,7.833,12.213c2.681,0,5.812-1.582,7.448-3.855
				c0.363-0.501,0.359-0.828,0.04-1.191l-0.868-1.051c-0.227-0.27-0.392-0.362-0.666-0.362c-0.955,0-2.229,2.283-5.228,2.283
				c-2.364,0-3.088-1.917-3.088-5.916v-0.359l8.801-0.871c0.637-0.044,0.97-0.306,0.97-0.808v-1.634
				C508.407,640.439,506.123,637.749,501.079,637.749z M572.156,637.749c-4.862,0-7.913,2.874-7.913,12.555
				c0,10.725,3.652,12.213,7.832,12.213c2.682,0,5.815-1.582,7.45-3.855c0.363-0.501,0.357-0.828,0.038-1.191l-0.869-1.051
				c-0.228-0.27-0.413-0.362-0.686-0.362c-0.956,0-2.207,2.283-5.209,2.283c-2.364,0-3.087-1.917-3.087-5.916v-0.359l8.802-0.871
				c0.636-0.044,0.95-0.306,0.95-0.808v-1.634C579.462,640.439,577.198,637.749,572.156,637.749z M587.82,637.749
				c-4.271,0-6.843,2.646-6.843,6.782c0,7.45,8.295,6.802,8.295,11.305c0,1.546-0.766,2.585-2.218,2.585
				c-1.273,0-2.275-0.27-3.777-1.089c-0.632-0.36-1.04-0.177-1.312,0.322l-0.866,1.496c-0.318,0.542-0.22,1.051,0.281,1.37
				c1.681,1.227,3.687,1.998,6.138,1.998c4.546,0,7.228-2.761,7.228-7.124c0-7.639-8.418-6.78-8.418-11.323
				c0-1.362,0.689-2.322,2.099-2.322c1,0,1.983,0.316,3.392,1.089c0.499,0.272,0.883,0.143,1.11-0.222l1.028-1.817
				c0.228-0.408,0.183-0.778-0.181-1.05C592.003,638.429,590,637.749,587.82,637.749z M618.463,637.749
				c-4.863,0-7.914,2.874-7.914,12.555c0,10.725,3.63,12.213,7.813,12.213c2.679,0,5.814-1.582,7.448-3.855
				c0.364-0.501,0.38-0.828,0.062-1.191l-0.868-1.051c-0.227-0.27-0.413-0.362-0.685-0.362c-0.956,0-2.23,2.283-5.229,2.283
				c-2.365,0-3.089-1.917-3.089-5.916v-0.359l8.823-0.871c0.633-0.044,0.948-0.306,0.948-0.808v-1.634
				C625.77,640.439,623.507,637.749,618.463,637.749z M682.09,637.749c-2.182,0-3.825,0.867-5.37,3.775l-0.321-2.826
				c-0.046-0.5-0.405-0.71-0.949-0.664l-5.45,0.485c-0.453,0.045-0.685,0.38-0.685,0.786v1.634c0,0.364,0.169,0.682,0.627,0.767
				l2.281,0.506v18.529c0,0.687,0.409,1.273,1.27,1.273h2.725c0.771,0,1.271-0.544,1.271-1.273v-14.896
				c1.773-3.137,2.499-3.817,3.273-3.817c0.772,0,1.19,1.044,1.19,5.271v14.169c0,0.59,0.405,0.833,0.949,0.788l6.54-0.544
				c0.457-0.044,0.688-0.382,0.688-0.788v-1.637c0-0.358-0.173-0.673-0.627-0.765l-2.282-0.505v-11.305
				C687.218,640.577,685.636,637.749,682.09,637.749z M535.8,637.79c-3.046,0-5.825,1.698-7.55,4.018
				c-0.364,0.499-0.308,1.033,0.1,1.352l1.352,1.13c0.5,0.456,0.879,0.276,1.333-0.223c1.182-1.36,2.306-2.32,3.895-2.32
				c1.727,0,2.544,1.104,2.544,3.51v2.22h-1.029c-3.817,0-8.317,1.81-8.317,8.217c0,4.64,1.956,6.822,5.228,6.822
				c2.68,0,3.991-1.995,4.944-3.635l0.262,2.686c0.045,0.5,0.423,0.729,0.97,0.686l5.449-0.503c0.455-0.046,0.686-0.38,0.686-0.785
				v-1.636c0-0.364-0.192-0.675-0.645-0.769l-2.26-0.502v-13.122C542.763,640.439,540.525,637.79,535.8,637.79z M552.716,637.972
				c-4,0-6.56,3.68-6.56,10.858c0,8.182,1.694,11.367,5.51,11.367c1.684,0,3.634-0.813,4.724-2.947v1.352
				c0,4.047-0.18,4.866-3.452,4.866h-3.734c-0.546,0-0.859,0.403-0.767,0.948l0.222,1.596c0.092,0.586,0.377,0.735,0.788,0.825
				c1.772,0.364,3.35,0.445,4.44,0.445c4.544,0,7.629-1.183,7.629-8.681v-19.581c0-0.499-0.314-0.768-0.767-0.768h-2.321
				c-0.408,0-0.67,0.217-0.807,0.628l-0.464,1.271C556.065,638.745,554.396,637.972,552.716,637.972z M697.17,637.972
				c-3.999,0-6.54,3.68-6.54,10.858c0,8.182,1.672,11.367,5.491,11.367c1.681,0,3.633-0.813,4.721-2.947v1.352
				c0,4.047-0.179,4.866-3.451,4.866h-3.714c-0.545,0-0.882,0.403-0.789,0.948l0.244,1.596c0.09,0.586,0.358,0.735,0.767,0.825
				c1.773,0.364,3.371,0.445,4.461,0.445c4.544,0,7.63-1.183,7.63-8.681v-19.581c0-0.499-0.313-0.768-0.767-0.768h-2.321
				c-0.408,0-0.691,0.217-0.828,0.628l-0.444,1.271C700.539,638.745,698.853,637.972,697.17,637.972z M488.503,638.034l-6.56,0.544
				c-0.457,0.045-0.667,0.358-0.667,0.768v1.633c0,0.361,0.17,0.68,0.626,0.769l2.282,0.506v19.215c0,0.59,0.403,0.833,0.948,0.788
				l6.54-0.544c0.454-0.05,0.686-0.382,0.686-0.788v-1.637c0-0.358-0.191-0.673-0.645-0.765l-2.262-0.505v-19.218
				C489.451,638.208,489.048,637.988,488.503,638.034z M633.906,638.034l-6.541,0.544c-0.454,0.045-0.686,0.358-0.686,0.768v1.633
				c0,0.361,0.19,0.68,0.645,0.769l2.262,0.506v19.215c0,0.59,0.424,0.833,0.969,0.788l6.539-0.544
				c0.457-0.05,0.688-0.382,0.688-0.788v-1.637c0-0.358-0.192-0.673-0.649-0.765l-2.281-0.505v-19.218
				C634.853,638.208,634.451,637.988,633.906,638.034z M656.535,638.034l-5.774,0.544c-0.453,0.048-0.667,0.358-0.667,0.768v1.817
				c0,0.363,0.17,0.674,0.627,0.768l1.494,0.324v11.322c0,6.133,1.602,8.941,5.146,8.941c2.181,0,3.805-0.865,5.35-3.775
				l0.323,2.826c0.045,0.5,0.424,0.729,0.969,0.686l5.45-0.503c0.456-0.046,0.666-0.38,0.666-0.785v-1.636
				c0-0.364-0.171-0.675-0.627-0.769l-2.28-0.502v-19.259c0-0.591-0.404-0.811-0.95-0.768l-5.773,0.546
				c-0.453,0.046-0.686,0.357-0.686,0.766v1.816c0,0.365,0.192,0.675,0.646,0.768l1.495,0.323v12.172
				c-1.773,3.14-2.499,3.834-3.271,3.834c-0.773,0-1.172-1.064-1.172-5.289v-14.17C657.504,638.21,657.08,637.988,656.535,638.034z
				 M596.744,638.253c-0.5,0-0.789,0.311-0.789,0.768v2.402c0,0.501,0.335,0.785,0.789,0.785h6.943l-7.307,14.454
				c-0.363,0.594-0.545,1.081-0.545,1.715v2.866c0,0.503,0.313,0.768,0.768,0.768h11.911c0.498,0,0.766-0.31,0.766-0.768v-2.4
				c0-0.5-0.313-0.788-0.766-0.788h-7.086l7.267-14.394c0.318-0.544,0.546-1.27,0.546-2.181v-2.461c0-0.5-0.315-0.768-0.768-0.768
				h-11.729V638.253z M500.937,641.342c1.544,0,2.14,1.68,2.14,6.501l-4.44,0.363C498.636,642.436,499.71,641.342,500.937,641.342z
				 M572.014,641.342c1.545,0,2.138,1.68,2.138,6.501l-4.44,0.363C569.712,642.436,570.788,641.342,572.014,641.342z
				 M618.322,641.342c1.544,0,2.141,1.68,2.141,6.501l-4.464,0.363C615.999,642.436,617.095,641.342,618.322,641.342z
				 M471.444,641.969c0.865,0,1.781,0.458,2.463,1.232v11.224c-1.772,3.137-2.497,3.817-3.271,3.817
				c-0.953-0.003-1.515-2.225-1.515-8.542C469.123,643.52,470.126,641.969,471.444,641.969z M553.806,641.969
				c0.864,0,1.714,0.516,2.444,1.654v8.442c-1.729,3.134-2.366,3.813-3.232,3.813c-0.863,0-1.453-2.085-1.453-7.126
				C551.565,643.433,552.488,641.969,553.806,641.969z M698.26,641.969c0.863,0,1.736,0.516,2.462,1.654v8.442
				c-1.728,3.134-2.364,3.813-3.231,3.813c-0.862,0-1.453-2.085-1.453-7.126C696.04,643.433,696.941,641.969,698.26,641.969z
				 M536.445,651.215h1.029v3.489c-1.59,2.956-2.406,3.535-2.907,3.535c-0.682-0.003-1.089-0.766-1.089-3.13
				C533.479,652.203,534.718,651.215,536.445,651.215z"/>
		</g>
	</g>
</g>
<g id="Ebene_2" display="none">
</g>
</svg>
