<?xml version="1.0" encoding="utf-8"?>
<!-- Generator: Adobe Illustrator 16.0.0, SVG Export Plug-In . SVG Version: 6.00 Build 0)  -->
<!DOCTYPE svg PUBLIC "-//W3C//DTD SVG 1.1//EN" "http://www.w3.org/Graphics/SVG/1.1/DTD/svg11.dtd">
<svg version="1.1" id="Layer_1" xmlns="http://www.w3.org/2000/svg" xmlns:xlink="http://www.w3.org/1999/xlink" x="0px" y="0px"
	 width="180px" height="80px" viewBox="51.125 14 180 80" enable-background="new 51.125 14 180 80" xml:space="preserve">
<g>
	<g>
		<path fill="#D6D2E7" d="M74.736,39.339h-16.86v-15.42h52.237v15.42H93.26V84.08H74.736V39.339z"/>
		<path fill="#D6D2E7" d="M112.993,23.919h50.708v15.42h-32.173v7.497h32.173v14.328h-32.173v7.498h32.182V84.08h-50.717V23.919
			L112.993,23.919z"/>
		<path fill="#D6D2E7" d="M166.821,23.919h30.417c20.05,0,27.136,14.83,27.136,29.992c0,18.458-9.773,30.168-30.756,30.168h-26.797
			L166.821,23.919L166.821,23.919z M185.356,68.662h7.25c11.546,0,13.234-9.355,13.234-15.007c0-3.785-1.186-14.315-14.584-14.315
			h-5.899L185.356,68.662L185.356,68.662z"/>
	</g>
</g>
</svg>
