<?xml version="1.0" encoding="utf-8"?>
<!-- Generator: Adobe Illustrator 16.0.0, SVG Export Plug-In . SVG Version: 6.00 Build 0)  -->
<!DOCTYPE svg PUBLIC "-//W3C//DTD SVG 1.1//EN" "http://www.w3.org/Graphics/SVG/1.1/DTD/svg11.dtd">
<svg version="1.1" id="Ebene_1" xmlns="http://www.w3.org/2000/svg" xmlns:xlink="http://www.w3.org/1999/xlink" x="0px" y="0px"
	 width="150px" height="80px" viewBox="-36.5 -18 150 80" enable-background="new -36.5 -18 150 80" xml:space="preserve">
<g id="svg2385" xmlns:svg="http://www.w3.org/2000/svg" display="none">
</g>
<g id="Ebene_2">
	<g>
		<path id="path2482" fill="#D6D2E7" d="M61.256,32.875h-7.776V11.374h7.776c6.108,0,8.309,2.615,8.309,10.752
			C69.564,30.261,67.368,32.875,61.256,32.875 M90.451,11.374h12.347V5.518H87.926c-7.996,0-11.282,4.477-11.282,11.495
			l-0.004,0.685c-1.338-8.26-6.245-12.179-15.237-12.179H46.327C40.267-6.643,27.711-14.995,13.2-14.995
			c-20.427,0-36.998,16.566-36.998,37.004c0,20.432,16.571,36.986,36.998,36.986c14.421,0,26.902-8.241,33.001-20.264h15.377
			c3.678,0,6.98-0.219,10.361-2.91c2.427-1.934,3.958-4.652,4.661-8.217v11.085h7.048l0.011-13.046h16.634v-5.809H83.648
			l0.095-2.349C83.747,13.675,84.893,11.374,90.451,11.374"/>
		<path id="path2486" fill="#FFFFFF" d="M29.585,19.272h4.594c3.655,0,5.809-0.734,5.809-3.83c0-3.18-2.153-4.071-5.897-4.071
			H18.508V5.516h18.125c9.197,0,10.5,6.438,10.5,10.026c0,3.819-1.559,9.879-10.513,9.879h-4.445c-5.565,0-6.764,2.011-6.764,5.818
			v1.779h20.807v5.671H18.303v-8.241C18.303,23.438,21.599,19.272,29.585,19.272"/>
	</g>
</g>
</svg>
